<svg id="logosandtypes_com" data-name="logosandtypes com" xmlns="http://www.w3.org/2000/svg" viewBox="0 0 150 150"><defs><style>.cls-1{fill:none;}.cls-2{fill:#f05023;}.cls-3{fill:#0a2240;}</style></defs><path class="cls-1" d="M0,0H150V150H0Z" transform="translate(0 0)"/><path class="cls-2" d="M51.77,67c-3.91.39-9.24.9-14.62,1.36-.21-4.5-.16-8.45,0-11.7,4.49,2.47,11.58,4.38,14.67,5.14Z" transform="translate(0 0)"/><path class="cls-2" d="M52.05,84c-5.31,1.34-9.33,2.53-12.37,3.58a109.06,109.06,0,0,1-2.09-13.09c4.73-.22,10.14-.69,14.29-1.09C51.92,73.94,51.76,83.76,52.05,84Z" transform="translate(0 0)"/><path class="cls-2" d="M52.25,55.5C49.47,54,44.16,51.08,39.53,49a132.84,132.84,0,0,1,14.06-3.31h0c1,2,2,3.68,2.64,4.76A10.28,10.28,0,0,0,52.25,55.5Z" transform="translate(0 0)"/><path class="cls-2" d="M64.52,48.16a31.93,31.93,0,0,0-1.41-3.79c2.16-.2,4.35-.36,6.59-.46h0c0,1.32,0,2.74,0,4.25Z" transform="translate(0 0)"/><path class="cls-2" d="M80.2,48.15c.08-1.49.14-2.91.18-4.28h0c2.64.09,5.2.28,7.74.53a33.27,33.27,0,0,0-1.43,3.75Z" transform="translate(0 0)"/><path class="cls-2" d="M95,50.52c.59-1,1.57-2.79,2.64-4.79a135.09,135.09,0,0,1,13.47,3.18c-4.59,2.1-9.86,5-12.64,6.51A8.82,8.82,0,0,0,95,50.52Z" transform="translate(0 0)"/><path class="cls-2" d="M94.65,89.92c6.22,2.2,10.79,3.65,14.14,4.57q-.74,2.57-1.65,5.19h0c-3.42-1.06-15.09-4.1-31.79-4.08-17.18,0-29.1,3.26-32.09,4.24q-.94-2.61-1.71-5.19c3.4-.94,8.1-2.42,14.57-4.74a13.44,13.44,0,0,0,7.77,2.33l22.69,0A14,14,0,0,0,94.65,89.92Z" transform="translate(0 0)"/><path class="cls-2" d="M98.79,73.3c4,.37,9.24.81,14,1a116.32,116.32,0,0,1-2.1,13c-3-1-6.94-2.16-12.05-3.44C99,82.74,98.72,74.67,98.79,73.3Z" transform="translate(0 0)"/><path class="cls-2" d="M113.44,56.56c.06,3.23.07,7.16-.19,11.61-5.38-.48-10.68-1-14.47-1.32V61.73C101.87,61,109,59,113.44,56.56Z" transform="translate(0 0)"/><path class="cls-2" d="M137.41,71.09c-2.84-1.2-10.26-3.48-17.13-5.33.1-3.5.21-7.09.09-10.8,8.94-11.14,5.56-13.43,5.56-13.43a53,53,0,0,1-9,3,97.34,97.34,0,0,0-13.53-4.35c5.65-18.66.31-19.64.31-19.64a61.89,61.89,0,0,1-19.4,14.21c1-1.31-5.7-25.63-8.11-31.29-.81-1.55-1-2.06-1.85-.12-2.41,5.46-8.63,30-7.75,31.57a.12.12,0,0,0-.08,0C61.23,32.63,52.92,27,46.92,20.24c0,0-5.34,1,.25,19.74a96.78,96.78,0,0,0-13.41,4.27,74.72,74.72,0,0,1-8.62-3s-3.38,2.19,5.14,13.09c-.22,3.93-.1,7.85,0,11.56a175.59,175.59,0,0,0-17,5.37s-1.42.46-1.42,1,.87.65,1.31.87c2.84,1.2,11,3.48,18.33,5.33.44,2.94,1,5.78,1.65,8.61-11.77,10.16-8.49,13.21-8.49,13.21a51.13,51.13,0,0,1,11.67-1.75,89.35,89.35,0,0,0,8.53,18.1,126.54,126.54,0,0,0,23.78,3.69c1.86,7.85,4.5,17.45,5.91,20.61.84,1.92,1,1.44,1.86-.11,1.41-3.28,4.24-12.77,6.09-20.52a127.53,127.53,0,0,0,22.9-3.51,94.34,94.34,0,0,0,8.6-18,53.42,53.42,0,0,1,11.78,1.83s3.27-3.06-8.42-13.41c.66-2.84,1.2-5.78,1.63-8.84a176.86,176.86,0,0,0,18.54-5.36c.52-.24,1.31-.49,1.31-.88S137.41,71.09,137.41,71.09ZM66.74,34.94h-.06a.07.07,0,0,0,0-.06A.09.09,0,0,0,66.74,34.94Zm59.32,35.52c-.12.93-4.72,1.1-10.46,1v.15c9.71,1.08,8.62,2,8.62,2-.08.9-3.92,1.08-8.89.92a123.07,123.07,0,0,1-2.25,13.77c7.18,2.69,7.44,4.18,7.44,4.18s-1.16.87-8.28-.69c-.1.39-.21.79-.32,1.19,3.58,1.22,6.29,2.38,6.09,3,0,0-.45.79-6.72-.75a107.4,107.4,0,0,1-7.55,19.09c-21.73,4.42-35,4.43-56.72.06l-.55-1.09a99.14,99.14,0,0,1-7.38-17.91c-6,1.46-6.49.69-6.49.69-.14-.6,2.41-1.71,5.85-2.92l-.33-1.21c-6.8,1.48-7.92.64-7.92.64s.25-1.45,7.07-4.06A110,110,0,0,1,35,74.55c-4.58.14-8-.06-8.14-.94,0,0-.92-.83,7.9-1.88a.82.82,0,0,1,0-.22c-5.36.12-9.58-.07-9.73-.94,0,0-.52-1,9.57-2-.24-5.31-.12-9.91,0-13.53-4.43-3.38-3.85-3.88-3.85-3.88.35-.29,1.86.09,3.95.84,0-.33,0-.64,0-.93-5-4-3.56-4.5-3.56-4.5.61-.4,2.29,0,4.48.82a148.19,148.19,0,0,1,16.61-4.14c-2.36-4.57-4.54-9.4-3.41-9.79.76-.31,4.63,3.4,7.81,9.06l.59-.09c-2.43-4.64-4.71-9.66-3.5-10.07.7-.31,4.83,3.58,8,9.51,2.59-.28,5.2-.47,7.85-.58.22-16.53,2.65-16.37,2.65-16.37,1.22,0,2.38,6.17,2.3,16.26h.84c.22-16.42,2.64-16.26,2.64-16.26,1.14,0,2.36,6.21,2.29,16.35,3,.1,6,.31,8.94.63,3.24-6,7.38-9.89,8.09-9.58,1.23.41-1.09,5.5-3.52,10.17l.5.07c3.2-5.71,7.12-9.46,7.81-9.16,1.19.4-1,5.31-3.35,9.92a157,157,0,0,1,16,4c2.19-.83,3.88-1.23,4.5-.83,0,0,1.36.51-3.58,4.51,0,.29,0,.59,0,.92,2.1-.76,3.63-1.15,4-.85,0,0,.58.5-3.86,3.83.09,3.52.15,8.13-.16,13.52h0C126.6,69.37,126.06,70.46,126.06,70.46Z" transform="translate(0 0)"/><path class="cls-3" d="M74,102.37V98.22c-3,0-5.86.16-8.5.35a7.07,7.07,0,0,1,2,4.14q3.15-.28,6.5-.34Z" transform="translate(0 0)"/><path class="cls-3" d="M85.28,98.55q-4-.28-8.6-.33v4.16c2.22,0,4.4.14,6.5.32A6.76,6.76,0,0,1,85.28,98.55Z" transform="translate(0 0)"/><path class="cls-3" d="M85.83,103c7.15.94,12.51,2.11,18.17,5.06.84-2,1.57-3.71,2.41-5.88a89.73,89.73,0,0,0-16.63-3.19,4.78,4.78,0,0,0-4,4Z" transform="translate(0 0)"/><path class="cls-3" d="M83.36,105.33c-2.15-.19-4.38-.31-6.67-.34v10.1a110.06,110.06,0,0,0,12.89-1c-2.63-2.73-5.41-5.46-6.23-8.71Z" transform="translate(0 0)"/><path class="cls-3" d="M91.75,112.49l1,1.08c3.22-.5,6.35-1.06,9.21-1.64.27-.54.52-1.08.78-1.62-5.18-2.73-9.91-3.73-16.59-4.68.91,2.08,3.11,4.5,5.56,6.86Z" transform="translate(0 0)"/><path class="cls-3" d="M71.88,115c.7,0,1.4,0,2.09,0V105c-2.29,0-4.52.16-6.67.36-.79,3.25-3.48,6-6.11,8.71,3.61.48,7.26.84,10.69,1Z" transform="translate(0 0)"/><path class="cls-3" d="M64.5,105.65c-6.66,1-11.47,1.95-16.65,4.74.26.53.52,1.06.8,1.59,2.91.58,6.08,1.14,9.33,1.62C60.39,111.13,63.47,108,64.5,105.65Z" transform="translate(0 0)"/><path class="cls-3" d="M50.83,106.19A60.39,60.39,0,0,1,64.92,103a4.8,4.8,0,0,0-4-4,96.54,96.54,0,0,0-16.76,3.23q1.14,2.91,2.53,5.87a34.55,34.55,0,0,1,4.12-1.85Z" transform="translate(0 0)"/><path class="cls-3" d="M54.3,82.63c.44,4.24,4.8,7.08,9.6,7.08l22.7,0c4.68,0,8.72-2,9.59-6.22.39-1.2.16-7,.22-8.3A11.45,11.45,0,0,0,89,77.35a7.64,7.64,0,0,0-2.49,2.73l-21.93,0V60.25l21.93,0,.11,4.91c5,0,9.71-2.2,9.7-7.1.15-5.13-4.61-7.43-9.72-7.41l-22.69,0c-4.8,0-9.16,2.85-9.59,7.21C54.31,64,54.3,76.46,54.3,82.63Z" transform="translate(0 0)"/></svg>
