<?xml version="1.0" encoding="utf-8"?>
<!-- Generator: Adobe Illustrator 19.2.1, SVG Export Plug-In . SVG Version: 6.00 Build 0)  -->
<svg version="1.1" id="layer" xmlns="http://www.w3.org/2000/svg" xmlns:xlink="http://www.w3.org/1999/xlink" x="0px" y="0px"
	 viewBox="0 0 652 652" style="enable-background:new 0 0 652 652;" xml:space="preserve">
<style type="text/css">
	.st0{stroke:#000000;stroke-width:8.2085;}
	.st1{fill:#363E99;stroke:#000000;stroke-width:2.3942;}
	.st2{fill:#F58220;}
	.st3{fill:#FFFFFF;}
	.st4{fill:#8E8E91;stroke:#000000;stroke-width:6.844;}
	.st5{fill:#F58220;stroke:#000000;stroke-width:6.844;}
	.st6{fill:#A7A9AC;}
	.st7{fill:#363E99;}
</style>
<path class="st0" d="M650.6,287.7c-2.2,5.3-10.8,12.8-24.3,12.8c-235.3,0.9-411.7,46.3-466.9,62.1l-6.9,26.5l-206.1,84.5l30.4-55.5
	l16.7-30.5l0.1-0.2v-0.2l25.8-91.7l0.1-0.4l-0.1-0.4l-5.4-19.4c0,0-2.3-8.2-2.6-9.5l5.8-7.9l21.1-29.3l0.2-0.2l0.1-0.3L60,152.6
	l0.1-0.4l-0.1-0.4l-9-28.2L42.6,98l28.7-0.9l135.1-4.2c0,0,24.4-0.8,28.1-0.9l-9.3,33l-0.6,2.1l2.1-0.1c23.1-1,59.5-2.9,101.6-5.1
	c100.3-5.4,237.8-12.6,330.7-14.1c10.2,0.5,19.2,5.5,24.5,13.9c4.7,7.2,5.9,16,3.1,23l-0.1,0.1v0.2l-4.4,24.3l-0.1,0.3l0.1,0.3
	c1.1,4.6,3.5,9.5,6,14.4c1,2,1.9,3.8,2.6,5.5l-29.9,2.9l-2.4,0.2l1.3,2.1c0.1,0.1,8.3,13.2,8.2,23.4
	C661.8,251.3,656.4,269,650.6,287.7z"/>
<path class="st1" d="M650.6,287.6c-3.9,9.3-16.1,12.9-25.3,12.9c-235.3,0.9-410.7,46.3-465.9,62.1l-6.9,26.6l-206,84.4l30.4-55.5
	l16.7-30.5l0.1-0.2v-0.2l25.8-91.7l0.1-0.4l-0.1-0.4l-5.4-19.4c0,0-2.3-8.2-2.6-9.5l5.8-7.9l21.1-29.3l0.2-0.2l0.1-0.3L60,152.6
	l0.1-0.4l-0.1-0.4l-9-28.2L42.6,98l28.7-0.9l135.1-4.2c0,0,24.4-0.8,28.1-0.9l-9.3,33l-0.6,2.1l2.1-0.1c23.1-1,59.5-2.9,101.6-5.1
	c100.3-5.4,237.8-12.6,330.7-14.1c10.2,0.5,19.2,5.5,24.5,13.9c4.7,7.2,5.9,16,3.1,23l-0.1,0.1v0.2l-4.4,24.3l-0.1,0.3l0.1,0.3
	c1.1,4.6,3.5,9.5,6,14.4c1,2,1.9,3.8,2.6,5.5l-29.9,2.9l-2.4,0.2l1.3,2.1c0.1,0.1,8.3,13.2,8.2,23.4
	C661.8,251.2,656.5,269,650.6,287.6z"/>
<path class="st2" d="M153.5,250.1c1.9-1.8,23.9-22.6,23.9-22.6l34.1-117.6l-2.3,0.1l-141.4,4.4c0,0,10.7,33.5,11.9,37.6
	c-0.3,1-23.6,83.5-23.8,84.1c-0.3,0.5-24,33.3-24,33.3s6.4,22.7,7.2,25.9c-0.3,0.9-27.8,98.4-27.9,98.8
	c-0.2,0.3-22.1,40.4-22.1,40.4l145.1-60.2L163.6,265C163.6,265.1,154.8,252.1,153.5,250.1z M149.5,151.6c-1.2,4-18.3,60.9-18.6,62.1
	c-0.8,0.5-12.5,8.1-17.5,11.2c2-7.4,19.1-71,19.7-73.3C135.2,151.6,146.2,151.6,149.5,151.6z M108,278.2
	c-0.4,1.8-15.8,65.7-16.2,67.4c-1.3,0.5-11.3,4.5-15.5,6.2c1.7-5.9,21.8-77.4,23.3-82.5C102,272,107.1,277.4,108,278.2z"/>
<path class="st2" d="M451,231.7l7.7-31.3l3.4-13.9l4.1-16.7c0.5-2.2,0.8-4.4,0.8-6.7c0-7-2.3-14-5.2-18.1
	c-5.7-8.1-14.4-11.5-27.5-10.9l-42.8,2.5l-0.4,0.9c-0.1,0.2-0.1,0.2-6.2,24.3l-4.4,17.6c0,0,0.1-0.1,0.2-0.1c-0.4,1-0.8,2.8-1.7,6
	l-7.9,31.6l-9.4,37.4c0,0,0.1-0.1,0.2-0.1c-0.4,1-0.8,2.7-1.7,6l-10.7,42l1.2,0.6c0.5,0.2,0.5,0.2,3.2-0.2l6.6-1l38.8-5.3
	c18.2-2.2,38.8-13.5,43.8-33.5L451,231.7z M427.8,172.8l-20.6,84.5c-0.7,2.8-4.1,6.1-10.1,6.9c1.2-4.6,24.8-98.6,25.4-100.9
	c3.3,0,4.7,0.7,5.2,1.3C428.5,165.4,429,167.5,427.8,172.8L427.8,172.8z"/>
<path class="st2" d="M362.7,225.6L362.7,225.6l0.7-2.8l9.5-37.9l9.4-37.1l-0.1,0.1c0.2-0.7,0.5-1.6,0.9-3l2-7.5l-2.4,0.2l-2.1,0.1
	l-6.4,0.3l-23.4,1.4l-1.1,0.1c-1.3,0.1-1.3,0.1-4,10.8l-5.4,20.9c0,0-3.3,13-5.6,21.8c-2.3-19.7-5-49-5.1-49.4l-0.3-3.1l-28.7,1.8
	c0,0-0.8,0.1-1,0.1h-0.1l0,0l0,0c-1.2,0-1.5,1.2-1.8,2.3L286.7,189c0,0,0.1-0.1,0.2-0.1c-0.4,1.1-0.9,2.9-1.8,6.4l-8.7,33.7
	l-10.4,40l-10.6,39.9l-2,7.5L276,143l-2.2,0.3l-2.1,0.3c-1,0.1-18,1.1-29.2,1.8c-16.9,1-20.2,1.2-20.7,1.3l-1.8,0.3l-0.7,1.6
	c-0.2,0.4-5.3,13.8-21.8,56.5C178,255.5,145.5,340,144.6,342l-2.8,6.4l6.7-2c3.8-1.2,37.8-11,38.7-11.2l1.5-0.4l0.6-1.5l1.7-4.1
	c0.1-0.2,8.7-21.8,10.4-26c1.5-0.4,9.1-2.4,9.1-2.4s4-1.1,6.7-1.8c-0.6,3.9-2.6,18.7-2.6,18.7c0,0.2-1,6.9-1,6.9l-0.5,4.5l4.4-1.1
	c1.8-0.4,31.9-7.2,33.4-7.5l1.1-0.2c0,0-0.1,0-0.2,0c0.4,0,0.7-0.2,0.9-0.4l-0.3,1.2l2.3-0.5l2.7-0.5l6.7-1.4l20.9-4.2h-0.3l2-0.4
	l4.1-0.8l0.5-2l1.1-4l8.1-31.4c0,0,0,0.1-0.1,0.2c0.1-0.4,0.4-1.6,1.8-6.8c0,0,1.5-5.8,2.8-11.1c2.4,14.9,4.5,33.1,5.6,42.5l0.7,6
	l0.7,2.8l30.7-5.2l0.5-2.1l10.7-41.8C353.9,260.6,362.7,225.6,362.7,225.6z M226.2,226.5c-2,12.5-4.3,26.6-6,36
	c-1.6,0.4-6.3,1.7-6.3,1.7s-0.9,0.3-2,0.5c2-5.3,13.9-37.7,13.9-37.7C226.1,227,226.2,226.7,226.2,226.5z"/>
<path class="st2" d="M508.8,167.3l9.7-37.7l-2.2,0.1l-35.6,1.7L470,173.1l-8.8,35.9l-8.8,35.8l-2.2,8.9l-9,36.3l0.3,0.6
	c0.5,1,0.5,1,7,0.4l30.5-2.7l10.3-41.7l8.7-35.6l8.7-35.8L508.8,167.3z"/>
<path class="st2" d="M567.5,160.8c2.1-0.2,15.3-1.3,15.3-1.3l0.4-0.4c0.3-0.3,0.3-0.3,7.9-31.5l0.2-0.9l-0.6-0.7
	c-0.6-0.6-0.6-0.6-35,1.3c0,0-33.3,1.9-33.5,1.9c-1.3-0.1-1.4,0.1-2.7,5.9l-6.1,24.9v0.2c0,1.7,0,1.7,10.2,1.8c0,0,3.9,0,6.4,0
	c-0.9,3.5-13.4,54-13.4,54s0.2-0.2,0.3-0.2c-0.6,1.4-1.4,4.4-2.9,11l-11.9,48.5l-2.3,9.5l0.2,0.5c0.4,1.2,0.9,1.2,3.7,1l6.3-0.4
	l22.4-1.3l4.7-0.2l-0.1-0.3l1-2.1l1-4.1l14.9-60.2l7-28.3C560.5,189.3,566.2,166.3,567.5,160.8z"/>
<path class="st2" d="M666.9,129.9c-2.2-3.5-6.7-7.7-15.7-7.3l-38.8,2.2c-10.9,0.4-21.3,8.9-23.9,19.3l0.1-0.1
	c-0.3,0.9-0.7,2.3-1.3,4.8l-6.3,25.5c-0.4,1.7-0.6,3.2-0.6,4.7c0,4.3,1.5,7.8,3.2,11l2.1,2.9c0,0,24,34.5,24.7,35.7
	c-0.3,1.3-4.6,18.7-5.1,20.8c-1.4,0.1-3.5,0.2-5.6,0.3c0.8-3.6,5.8-26.5,5.8-26.5l-37.7,1.4l-8.2,37.2c-1.2,5.2-0.5,10.3,2.1,14.2
	c3.2,4.9,8.9,7.6,15.6,7.4c0.2,0,39-1.4,39-1.4c11.2-0.2,21-7.9,23.8-18.8l3.1-13.1l2-7.8c0,0,0,0.1-0.1,0.2
	c0.1-0.4,0.5-1.8,2.3-9.4l1.6-6.6c0.4-1.7,0.6-3.3,0.6-4.8c0-5.7-2.3-10.4-4.1-13.7l-0.3-0.5l-0.1-0.2c0,0-22.2-31.4-25.5-36.1
	c0.3-1.3,2.9-12.3,3.3-13.9c1.3-0.1,3.3-0.2,5.4-0.3c-0.8,3.5-4.6,19.9-4.6,19.9l37.8-1.2l7.1-30.9l0,0
	C670,139.3,669.3,134,666.9,129.9z"/>
<path class="st2" d="M279.6,104.1c0.3-1,0.5-1.8,0.5-2.5c0-0.8-0.2-1.4-0.5-1.9c-0.3-0.5-0.8-0.8-1.4-1c1.5-0.7,2.7-2,3.6-4.9
	c0.3-0.8,0.4-1.6,0.4-2.2c0-0.9-0.2-1.6-0.7-2.2c-1.1-1.4-3.2-1.9-6.9-1.7l-20.8,1l-6.8,22.8l23.4-1.1
	C273.9,110.3,277.9,109.4,279.6,104.1z M257,104.9c0.2-0.8,0.6-1.9,0.7-2.2c0.7,0,12.3-0.6,12.3-0.6c1.1-0.1,1.4,0.1,1.5,0.2
	c0,0.1,0.1,0.1,0.1,0.2s0,0.3-0.1,0.5c-0.3,0.9-1,1.3-2.5,1.3C269,104.4,259.8,104.7,257,104.9z M259.5,97c0.2-0.8,0.6-1.9,0.7-2.2
	c0.7,0,12.2-0.6,12.2-0.6c0.8,0,1,0.1,1.1,0.2c0,0,0.1,0.1,0.1,0.2s0,0.3-0.1,0.5c-0.3,0.9-0.9,1.4-2.1,1.4
	C271.2,96.4,262.1,96.9,259.5,97z"/>
<path class="st2" d="M321.9,108.3l10.2-0.5c6.7-0.3,10.7-3.1,12.4-8.8l4.4-14.7h-0.8l-7.5,0.4l-3.9,12.9c-0.8,2.5-2,3.5-4.6,3.6
	l-7,0.3c-1.3,0.1-2.1-0.1-2.3-0.5c-0.3-0.4-0.3-1.2,0.1-2.4l4-13.3l-8.3,0.4l-4.3,14.3c-0.8,2.7-0.7,4.8,0.4,6.2
	C315.8,107.8,318.1,108.5,321.9,108.3z"/>
<path class="st2" d="M386.9,97.7c0.8,0,16.3-0.8,16.3-0.8l1.9-6.2c0,0-14.9,0.7-16.3,0.8c0.3-0.9,0.7-2.4,0.9-2.9
	c0.8,0,17.1-0.8,17.1-0.8l2-6.4h-0.8l-24.5,1.2l-6.8,22.8l8.3-0.4C384.6,105,386.7,98.4,386.9,97.7z"/>
<path class="st2" d="M446.1,94.9c0.8,0,16.3-0.8,16.3-0.8l1.9-6.2c0,0-14.9,0.7-16.3,0.8c0.3-0.9,0.7-2.4,0.9-2.9
	c0.8,0,17.1-0.8,17.1-0.8l2-6.4h-0.8l-24.5,1.2l-6.8,22.8l8.3-0.4C443.9,102.3,445.9,95.6,446.1,94.9z"/>
<path class="st2" d="M504.7,95.6c0.5,0,12.9-0.6,13.7-0.7c0.2,0.7,1.1,3.7,1.1,3.7l9-0.4L522,76.1h-0.4l-9.5,0.5L492,100l9.5-0.5
	C501.5,99.6,504.4,95.9,504.7,95.6z M509.8,89.7c1.1-1.4,4.5-5.4,5.5-6.6c0.4,1.4,1.5,5.3,1.7,6.3C516,89.4,511.5,89.6,509.8,89.7z"
	/>
<path class="st2" d="M586.7,88.9c0,0-14.6,0.7-15.9,0.8c0.4-1.4,4.9-16.1,4.9-16.1h-0.8l-7.5,0.4l-6.8,22.8l24.3-1.2L586.7,88.9z"/>
<path class="st2" d="M627.7,93.8l11.4-0.6c6.4-0.3,11.1-1.9,13.1-8.7l2-6.5c0.9-2.7,0.7-4.8-0.3-6.1c-1.3-1.6-3.6-2.2-8.1-2
	l-11.4,0.6c-6.4,0.3-11.1,1.9-13.1,8.7l-2,6.5c-0.9,2.7-0.7,4.8,0.3,6.1C620.8,93.4,623.2,94,627.7,93.8z M628.3,83.6l0.7-2.3
	c0.8-2.5,1.9-4,5.3-4.2l8.3-0.4c1.5-0.1,2.3,0.1,2.7,0.6c0.4,0.5,0.3,1.4-0.1,2.8l-0.7,2.3c-0.9,2.9-1.8,4-4.9,4.1l-9.1,0.4
	c-1.4,0.1-2.2-0.1-2.4-0.5C627.7,86.2,627.7,85.2,628.3,83.6z"/>
<g>
	<path class="st3" d="M248.9,316.1c-4.8,1.1-23.9,5.4-30.4,6.8c0.2-1.2,0.4-2.7,0.7-4.5c1.1-7.1,2.7-18,3.3-23.6l0.2-2.1l-2.1,0.5
		c-4,0.9-7.8,2-11.4,3c-3.3,1-6.8,2-10.6,2.7l-0.8,0.2l-0.3,0.7c-3.2,7.6-8.3,20.5-11,27.5c-0.6,1.6-1.1,2.7-1.4,3.4
		c-4.4,1.3-26.8,7.7-35.1,10.2c5.9-15,32.1-83.1,51.7-134.3c10.9-28.2,19.6-50.9,21.3-55.5c2.6-0.2,11.1-0.7,19.5-1.1
		c13.4-0.8,23.7-1.4,27.8-1.6L248.9,316.1z M221.6,225.3l-16,43.4l-1,2.5l2.6-0.5c2.2-0.5,5.2-1.3,8-2.2c2.8-0.8,5.9-1.7,8-2.2
		l1-0.2l0.2-1c3.6-20.3,11.2-69.6,11.3-70.1l-2.9-0.8L221.6,225.3z"/>
	<path class="st3" d="M339,300.2l-22.5,3.7l-0.7,0.1c-0.1-1-0.3-2.3-0.4-3.9c-1.4-12.4-4.6-41.6-8.3-56.8l-1.5-5.9l-1.6,5.9
		l-8.1,31.4l-1,3.6l-7.2,27.8l-0.5,1.8l-0.4,1.4l-1.2,0.2l-1.7,0.3l-20.9,4.2l-1.7,0.4l-2.6,0.6l1.3-4.9l10.5-39.9l10.4-40l10.4-40
		l10.3-40.1l0.7-2.8l0.1-0.5c4.1-0.3,18.3-1.2,22.9-1.4c0.9,9,5.2,55,7.2,64.4h2.9l6.1-23.9l2-7.9l3.9-15.1l4.1-15.8l0.5-2l0.3-1.4
		c1.2-0.1,2.8-0.2,2.8-0.2c4.3-0.3,13.4-0.8,19.5-1.1c1.8-0.1,3.2-0.2,4.3-0.2l-0.3,1.3l-0.8,3l-4.8,19l-4.6,18.1l-9.5,37.9
		l-0.7,2.8l-8.8,35C349.3,259.5,340.5,294.1,339,300.2z"/>
	<path class="st3" d="M493.5,209.9l-4.3,17.7l-4.4,17.8l-1.4,5.4c0,0-7.8,31.8-8.1,33l-28.3,2.5l7.8-31.6l2.2-8.9l8.8-35.8l5.4-21.9
		l3.4-14c0,0,9.4-37.6,9.6-38.2l27.8-1.4c-0.3,1.1-7.8,31.5-7.8,31.5l-2,7.9l-3,12.4L493.5,209.9z"/>
	<path class="st3" d="M563.8,156.4l-7.9,31.9l-7,28.3l-15.6,63.4l-28.1,1.6l30.7-124h-16.9c0,0,5.4-22.2,5.7-23.5
		c7.5-0.4,50.9-2.9,60.9-3.5l-6,24.5L563.8,156.4z"/>
	<path class="st3" d="M664.1,143.8c0,0-6.1,26.5-6.4,27.4c0,0-26.3,0.8-28,0.9l4.7-20l-15.2,0.9l-4.7,19.4c0,0,17.7,24.8,26.5,37.5
		c0.1,0.1,0.1,0.1,0.1,0.1s0,0.1,0.1,0.1c0,0.1,0.1,0.1,0.1,0.2v0.1c2,3.8,4.6,9,3.1,15.3l-8.9,36.6c-2.2,8.8-10.1,15.1-19.3,15.3
		c0,0-38.5,1.4-38.7,1.4l0,0l0,0h-0.1c-5.2,0.2-9.5-1.8-11.7-5.3c-1.9-2.8-2.3-6.6-1.5-10.5v-0.1l0,0l7.3-33l0.1-0.6
		c0,0,26.2-1,28-1l-0.5,2.2l-0.6,2.8l-4.7,21.6l15.3-0.8l6.3-25.6l0.2-0.7l-0.4-0.6c-9.2-13.4-27.3-39.3-27.4-39.4
		c-2.2-4-3.3-7.6-2.2-12.3l7.4-30.2c2.1-8.4,10.6-15.3,19.5-15.6c6.5-0.3,32.5-2,38.8-2.2c6.8-0.3,10.1,2.6,11.5,5.1
		C664.6,135.4,665.1,139.4,664.1,143.8z"/>
	<path class="st3" d="M173.1,224.9l-24.9,23.6l-1,0.9l0.7,1.1l10.5,15.5l-28.2,104.7L-0.2,424.8L15.7,396l0.1-0.2v-0.2l28.2-100
		l0.1-0.4l-0.1-0.4l-6.8-24.6l23-31.9l0.2-0.2l0.1-0.3l24.2-85.6l0.1-0.4l-0.1-0.4l-10.4-32.5l131-4.1L173.1,224.9z M153.8,146.9
		h-23.2h-1.2l-0.3,1.1l-22.5,83.7l-1,3.8l3.3-2.2l25.4-16.4l0.5-0.3l0.2-0.5l20.2-67.3l0.6-2H153.8z M99,261.9l-1.9-2l-0.7,2.5
		l-26.5,94.2l-0.8,2.9l2.8-1.1l23.2-9.1l0.8-0.3l0.2-0.8l17-70.7l0.2-0.8l-0.6-0.6L99,261.9z"/>
	<path class="st3" d="M438.8,261.7c-4.4,17.9-23.2,28-39.8,30l-38.8,5.3c0,0-2.4,0.4-4.3,0.6l0.9-3.4l0.3-1.4l9.4-37.3l8-31.8
		l1.4-5.6l9.4-37.5l4.4-17.6l5.5-21.8l39.6-2.3c11.2-0.6,18.7,2.2,23.3,8.8c3.2,4.6,5.5,13.7,3.7,20.9l-4.1,16.7l-3.4,13.9
		l-7.7,31.3L438.8,261.7z M431.3,161.5c-2.2-2.4-5.8-3.3-11.4-2.8l-1.1,0.1l-0.3,1.1l-14.2,55.7l-13,52.1l-0.5,2.2l2.2-0.3l4-0.5
		c8.6-1.1,13.6-6.1,14.7-10.7l20.6-84.5C433.8,167.9,433.4,164,431.3,161.5z"/>
</g>
<g>
	<g>
		<path class="st4" d="M175.6,371.9c14.5,6.1,31.3,14.6,48.2,7.7c-5.9,5.5-13.8,8-22.6,8.6c-2.2,0.8-5.2-0.3-7.5,0
			c-13.9-2.5-24.3-12.5-39.7-11.7C160.1,373.4,167.2,369.8,175.6,371.9z"/>
		<path class="st4" d="M237.2,363.5c3.9,0,7.8-2.9,12.2,1.1c2.4,2.1,3.5,6,2.6,9c-2.9,7-9.6,11-16.2,10.2c-2.8-0.8-5.2-2.8-6-6.8
			C229.1,369.5,232.7,365.1,237.2,363.5z"/>
		<g>
			<path class="st4" d="M417.7,467.2c8.9-20,29.6-68.8,26.6-79.7c-1.5,4.8-21,3.7-21.4,9.1c-0.8,6.6-10.4,6.9-21,3
				c-9.8-3.6-17.3-8.3-24-9.5c-18-3.2-37.2,6.3-108.7-35.9c8.4,17,13.5,29.4,42.7,45.7c-21.6-0.9-41.4-14.6-49.4-25.9
				c1.4,18.7,13.7,41.1,19.8,47.2c2.3,0.4,4.2,0.8,6,1.3c3.3,0.9,5.9,2.1,8.9,3.9c0.2,0.1,0.5,0.2,0.7,0.3l0.4,0.4
				c1.1,0.8,2.2,1.6,3.5,2.5c7.2,6.4,4.9,18.3,5.9,26.8c0.8,11.1,58.6,54.1,111.7,53.9C419.3,510.3,406.5,492.1,417.7,467.2z"/>
		</g>
		<path class="st5" d="M499.6,333c9.1-1.7,16.2,5.6,24.5,7.3c0.3,1.2,1.5,2.3,0.8,3.6c-4.3,6.1-12.7,5.5-19.3,3.9
			c-3.6-1.5-5.8-4.6-9.3-5.7L499.6,333z"/>
	</g>
</g>
<g>
	<path d="M702.3,298.4c-4.1-24-23.8-44.4-44.6-56.7c-2.2-1.6-4.8-2.5-7.3-3.6c-10.1-3.8-22.9-3.2-32.5,0.9
		c-14.1,7-26.9,17.6-36.1,30.2c-17.1,20.8-53,29.1-61.8,56.6l1.4,52.4l10.7-2l-0.6-2c11-4.1,26.2-2.8,37.6-2.1
		c11.8,0.2,15.4,0,23.5-1.5c3.5-1.3,6.9-2.6,13.4-5.3c11.7-4.7,15.3-6,26.9-9.6c4.1-0.9,5.3-1.2,8.9-1.8c14.8-3.7,23-6.2,33.3-10.7
		c4.5-2.3,8.2-4.3,10.2-5.7C699.4,327.4,703.5,314.3,702.3,298.4z"/>
	<path class="st6" d="M686.1,329.3c-9.8,9.8-37.5,15.7-56,20.2c-12.5,4-22.7,7.6-35.4,13.1c-13.5,5.8-30.7,1-48.9,1.9
		c-5.7,0.1-11.8,2.2-15.4,3l-2.7-39.6c3.2-10.7,6.3-13.6,15.2-19.8s21-14.1,24.9-17.6c3.9-3.5,12.6-8.2,17.4-15.3
		c8.3-8.2,16.3-17.8,23.5-22.6c6.7-4.6,13.1-9,19.7-10c7.9-1.2,12.3,0.8,17.7,3.1c0.5,0.4,2,0.7,2.6,1.6l-9.5,0.7
		c-6.9-0.6-12.8,1.7-20.2,5.1c-8.3,3.9-18.9,19.5-29.4,28.9c-3.8,4-7.6,6.8-12,10.6c-12.8,8.9-29.8,16.9-33.3,33.3
		c-1.5,9.6,1.1,19.8,10.3,24.6c6.2,3.1,9.6,3.8,16.5,2.9c12.2-0.6,63.1-21.3,80-21.5c2.2-0.4,7.5-0.1,10.2,0.1l6.4-0.5
		c13.6-2.7,17.5-8.4,21.1-12.1c2.5-2.9,4.6-5.6,6.5-8.1C694.3,319.6,691.8,323.5,686.1,329.3z"/>
</g>
<g>
	<path d="M142.4,379.9l162.1,92.2c0.8,1,3.6,2.9,4.3,3.9c10.6,9.1,20.6,15.9,32.2,22.5c12.6,7.1,35.9,15.9,49.7,19.2
		c11.8,2.7,23.8,4.8,36.8,4.2c1.5,0,3.5,0,3.5-2c-4.6-13.6-11.6-26.9-8.3-37.6c3.3-10.7,18.5-41.4,27.2-64.1c2.6,1,3.2,1.6,6.2,1.6
		c6.2,1.9,11.4-5.4,16.9-1.6c10.7,5.4,15.9-7.9,26.3-5.6c7.6,0.8,11-6.9,15-11.9c9.7,0.1,13.2-10.6,15.8-17.6
		c1.8-9.9,11-22.1,1.1-31.3c2.6-4,6-8.1,5-13.1c-4.6-10-17.5-8.1-25.7-13.9c-2.8-1.5-6.5-1.1-9.2-2.5c7.4-15.6-8.4-48.4-51.1-31.8
		c-4.5,1.8-1.7-5.6-0.7-11.2c1.3-8.4,13.3-20.1,9.2-32.8c-4.3-8.5-15.5-6.2-23.3-7.1c-6.1-1.4-15.5-9.7-24.7-12.4
		c-11.3-3.9-23-0.3-32.7,4.5c-8.7,4.1-18.5,9.1-27,10.6c-18.1,2.2-24.9-2.5-36.7,4.9c-9.2,7.1-19,15.5-17.6,26.8
		c1.3,10.3-1.8,6.7-2.8,9.9c-20.8,0.4-36,7.3-42.2,13.4c-4.1,3.9-2.2,8.1-3.5,7.7c-6.3-1.9-27,12.9-35.4,39.7
		c-0.1,0-0.1,0.1-0.2,0.2c-6.7-8.8-17.9-13.3-29.5-13.5c-6.1-0.1-9.3,0.7-15.5,1.9c-8.2,2.3-16.4,8.3-18.1,17.3
		c0.3,1,1.2,1.1,2.1,1.3c4.1-1.5,4.9-1.5,8.2,0.6c4.3,2.2,8.4,4.8,9.4,9.1c-8.7,1.2-12.6,2.2-21.8,11.1
		C145.2,374.7,143.4,377.2,142.4,379.9"/>
	<path class="st6" d="M185.9,342.5c5.5,1.2,13.3,4.3,20.7,15.8c3,4.7,8.8,8.5,15.6,10.1c-0.8,1.3-3.1,1.7-4.8,2.2
		c-6.8,0.7-13.9,0.3-18.9-2.8c-5.2-2.2-18.7-18.5-32.6-23.6C171.5,342,179.7,341.1,185.9,342.5z"/>
	<path class="st6" d="M237.2,363.5c3.7-1.2,7.8-2.9,12.2,1.1c2.4,2.1,3.5,6,2.6,9c-2.9,7-9.6,11-16.2,10.2c-2.8-0.8-5.2-2.8-6-6.8
		C229.1,369.5,232.7,365.1,237.2,363.5z"/>
	<g>
		<path class="st6" d="M297.9,427.1l0.4,0.4c1.1,0.8,2.2,1.6,3.5,2.5c7.2,6.4,4.9,18.3,5.9,26.8c0.8,11.1,58.6,54.1,111.7,53.9
			c0,0-12.7-18.2-1.5-43.1c8.9-20,29.1-68.4,26.6-78.6c-4.5,11.6-19.6,9-20,13.5c-0.8,6.6-12.6,8.1-23.3,4.1
			c-9.8-3.6-18.9-8-25.6-9.2c-18-3.2-34.5-0.7-106.1-42.8c8.4,17,13.5,29.4,42.7,45.7c-21.6-0.9-41.4-14.6-49.4-25.9
			c1.4,18.7,13.7,41.1,19.8,47.2"/>
	</g>
	<path class="st2" d="M455.7,382.7c-0.5-4-2.4-7.9-5.2-11.3c1.7-5.5,9.6-4.3,11.4-3c2.1,1.2,3.7,3.1,4.7,5.6c1,4.3,1.1,9.6-0.8,14.3
		c-0.7,4.4-1.8,6.1-0.9,9.6c1.1,1.7,2.2,1.9,3.1,2.2c1.7-5,2.9-10.2,4.4-15.2c0.9-5.2,3.6-14.6,0.3-16.2c-1.3-0.8-1.5-1.3-2-2.3
		c-0.2-5.1,3.5-5.8,5.3-6c2.3,0,3.9,0.4,6.4,1c3.3,2.2,7.2,5.1,7.3,9.6c0.3,7.8-1.8,14.9-2.2,22.5c0,1,0.5,1.7,1.4,2.1
		c1.2,0.4,1.8-0.9,2.1-1.7c1.5-11.7,9.4-27.8-2.2-37.6c3.5-3.3,10.1-2.6,13.2-1.4c2.8,1.3,5.7,2.7,6.2,9.1
		c0.1,6.3-0.4,24.2,3.4,21.4c0.8-3.3,1.1-6.2,1.6-9.4c1-6.8,2.6-14.1,2-20.8c5.2-4.7,11.3,1.9,10.7,5.4c-0.4,8.3-2.3,15.5-5,23.2
		c-0.5,1.7-0.7,2.4-1.8,4.4c-1.2,1.5-3,3-5.1,3.9c-4.3-0.1-5.6,0.3-8,4.3c-1.6,4.3-3.6,6.7-7.9,8c-5.7,2.2-10.3-6-14.8-0.8
		c-2.5,2.9-6.3,4.2-10.2,4c-4.2-1.1-7.2-1.5-10.4-0.5c-2.3,0.7-4.9,2.2-7.6,2.9l-2-1.6C456.4,400.7,455,391.3,455.7,382.7z"/>
	<path class="st2" d="M499.6,333c9.1-1.7,15.5,5.2,24,6.9c1.2,1.3,2.2,2.6,1.5,4c-4.3,6.1-12.7,5.5-19.3,3.9
		c-3.6-1.5-5.8-4.6-9.3-5.7L499.6,333z"/>
</g>
<g>
	<path class="st3" d="M355.5,364.6c0.3-4.7,13.8-5.2,19.1-0.5c5.3,4.7,5.6,11.3,10.8,10.9c-3.4,3.3-11.9,4.4-17.8,2.9
		C357.4,375.4,355.2,369.4,355.5,364.6z"/>
	<path d="M367.7,375.6c4.9,0.3,8.9-3.2,9.1-7.8c0.2-4.6-3.6-8.6-8.5-9c-4.9-0.3-8.9,3.2-9.1,7.8
		C359.1,371.3,362.8,375.4,367.7,375.6z"/>
	<path class="st7" d="M359.2,366.6c-0.2,4.6,3.6,8.6,8.5,9c4.9,0.3,8.9-3.2,9.1-7.8c0-0.5,0-0.9-0.1-1.4c-0.6-0.8-1.3-1.6-2.2-2.2
		c-2.9-2.5-8.3-3.6-12.6-3.2C360.4,362.3,359.3,364.4,359.2,366.6z"/>
	<path class="st3" d="M364.3,368.2c0.6,0,1,0.6,1.5,0.9c0.4,1.2-0.6,2.8-2.2,2.2C363.1,370,362.6,369.1,364.3,368.2z"/>
</g>
<g>
	<path class="st3" d="M440.9,370.8c0.3-4.2-7.7-4-13,1.4c-3.4,3.5-5.5,6-8.8,6.7c3.5,2.2,8.5,3.7,14.3,1.8
		C439.4,378.6,440.6,375,440.9,370.8z"/>
	<path d="M428.7,379.4c-3.8,0.6-7.3-2.2-7.7-6.2c-0.4-4,2.4-7.6,6.3-8.2s7.3,2.2,7.7,6.2C435.3,375.1,432.5,378.8,428.7,379.4z"/>
	<g>
		<path class="st7" d="M428.7,379.4c3.8-0.6,6.7-4.3,6.3-8.2c-0.1-1-0.4-2-0.9-2.7c-2.1,0.7-4.3,1.9-6.2,3.8
			c-2.1,2.2-3.6,3.8-5.3,5.1C424.1,378.8,426.3,379.7,428.7,379.4z"/>
	</g>
	<path class="st3" d="M426.8,375.3c0.5,0.1,0.9-0.3,1.3,0c0.3,1.1-0.7,2.4-1.9,1.7C425.9,375.8,426.5,376,426.8,375.3z"/>
</g>
<path class="st6" d="M356.3,350.3c4.4-0.2,12.5-0.6,15.5,0.8c3.3,1.5,7.1,4.2,9.4,7.7c6.2,9.7,10.6,15.5,17.4,8.8
	c0,0-5.2,2.1-8.3-3.1C387.3,359.4,377.4,340.3,356.3,350.3z"/>
<g>
	<path class="st2" d="M417,395c-1.2,2.2-6.7,6.8-19.5,0c-14.5-7.7-19.7-4.7-27.6-7.7c0,0,7.9-3.5,13-2.1c5,1.5,7.5,2.2,11.2,0.3
		c4.3-2.2,6.2-3.9,7.6-9.6c0.6-2.2,9-7.9,9-1.2C410.8,386.4,417,395,417,395z"/>
	<path class="st2" d="M429.9,392c3-0.8,7.7-5.1,7.7-5.1c-0.2-2.5-3.8,0.8-6.7,0.2c-6.3-1.4-12.8-1-7,5.4l0,0
		C423.8,392.6,425.1,393.2,429.9,392z"/>
	<path class="st2" d="M333.9,351.6c8.7-6.6,20.5,2.2,9.1,13.2c-4.1,9.8,14.3,11.4,6.8,15C334.1,376.6,315.7,365.4,333.9,351.6z"/>
	<path class="st2" d="M304.8,348.5c-5.8-1.3-9.7,0.7-12.2,3.8c0,0,9-0.7,9.7,7l10.1,6.5C312.4,365.8,318.2,350.2,304.8,348.5z"/>
</g>
<path class="st6" d="M416.8,366.6c2.6,9,10.6,1.2,16-3.1c5.5-4.4,6.7-4,12.9-2.2c-3.6-2.5-4.7-5.1-11-2.5
	C428.6,361.3,421.1,372.2,416.8,366.6z"/>
<path class="st7" d="M400.7,424.2c-3.6-1.4-10.4,3.4-15.1-6.3c6.7,5.7,10,0.3,14.1,0.7c5.2,0.5,11.5,4.5,14.2,4.7
	c1.6,0.1,4.4-1.8,6.5-3.4c1.6-1.4-0.5-8.6,1-10.2c0.6,2.4,4.7,7.1,4,10.2c-0.6,3-3.6,6-8.8,8.5C410.2,431.2,411,428,400.7,424.2z"/>
<path class="st7" d="M337.3,420c-2.6-6.2-10.3-9.9-11.5-12.5c-1.3-2.6,6.5,0.1,4.6-0.9c3.9,2.1,9.4,5,12.7,10.6
	c3,5.1-1.8,12.4,1.3,23.6C337.8,436.7,340,426.2,337.3,420z"/>
<g>
	<path class="st2" d="M451.4,252.2c0.4-8.4-10.8-3.1-16.5-4.3c-3.7-0.4-6.8-2.4-9.9-4.6c2.2,8.1,12.5,14.1,12.5,14.1
		c-18-2.6-15.8-14.1-23.9-19.6c-6.1-2-13-1.8-19.4-2c-5.5,1.3-11.9,0.6-18.8,4.6l0,0c-12.7,18.5-16.2,15.2-29,20
		c6.9-4,10.8-7.8,13-11c-5.7,2.3-12.9,4.2-22.8,4.2c-11.4,0-14.4-0.4-16.7,0.7c-3.5,0.9-7.7,6.8-10.9,8.9c-6.8,6.6,1,14.4-2.5,20
		c5,1,10.6,1.4,27.5,5.7c28.9,4.2,33.1,25.3,44.2,29.4c22.6-9.7,54.4,9.3,62.8,0.1C444.1,303.8,429.8,278.4,451.4,252.2z"/>
</g>
<path class="st2" d="M473.6,294.2c-2.5,0-5.1,0.7-7.5,1.5c6.4,1,10.4,8,10.6,13.3c0.5,14.6-10.6,32.4-30.4,38.5
	c12.8-7.3,20.8-23.7,20.7-36.8c-0.1-5.5,0.4-12.2-5-13.4c-4.4,1.9-7.6,2.3-11.1,3c-2.3,13.6-5.2,25.1-6.7,35.7
	c-20.5,13.1-35.3-0.1-46.6,0.2c8.6,8.2,21.7,13.4,21.7,13.4c-15.8-1.3-24.5-7.1-32.8-12.1c-3.5-2-5.9-3.6-7.5-4.8
	c-16.2-11.9-26.8-28.9-41.6-32.4c-9.2-2.2-42.2-15.5-71.1,0c-26.3,14.1,5.7,16.9-23.3,16.2c0,0-12.7,14.8-13.1,18.5
	c0,0,17.3,14.6,63.1,4.7c33.7-7.2,50-7.7,100.6,9.2c10,3.3,17.9,4.4,25,4.7c12.5,1.3,26.2,0.5,46.1-6.7c8.9-3.3,23.6-14.6,26.8-29.3
	C495.4,300.4,478.4,294.2,473.6,294.2z"/>
<g>
	<path d="M374.7,316.7c22.6-9.7,52,11.8,66.8,0.7l1.3,19.3c-0.4,0.1-0.8,0.8-1.2,1c-19.7,10.7-34.6-1.5-44-1.4L374.7,316.7z"/>
</g>
<g>
	<path d="M346.9,281c10.6-1.6,22.4,1.5,31.5-4.9c13-6.7,14.4-17,14.2-28.5c1.3-2.2,1.7-1.6,2.8-0.7c2.9,7.7,2.7,16.3-0.9,24.1
		c-3.8,5.8-8.5,11.7-15.5,13.7c-5.8,2.2-9.2,2.6-14.7,1.7c-6.9-0.6-11.3-2.6-17.4-3.3l-1.1-1L346.9,281z"/>
</g>
<path class="st6" d="M175.6,371.9c14.5,6.1,31.3,14.6,48.2,7.7c-5.9,5.5-16.1,13.6-30.1,8.7c-8.8-3.1-20.7-13-39.7-11.7
	C160.1,373.4,167.2,369.8,175.6,371.9z"/>
<path d="M59.1,526.9c-6.5,2.5-9,13.2-4.9,26.3c3.2,10.3,11.1,20.8,25.3,15.2l26.6-14.2l56.8-24c40.7,21.4,60.9,13.9,67.4,9.5
	c7.9-0.4,23.9-3.8,28.3-9.2c2.8-0.2,20.8-6.1,24.6-15.7c21.5-3.6,24-26.4,24-42.3c0-4.6-0.2-8.7-0.1-11.5c0.1-1.9,0.3-3.5,0.3-5.2
	c1.2-25.1-5.2-31.7-21.3-34.2c-0.9-0.1-1.8-0.3-2.6-0.4c-6.7-0.8-14.9-1.2-24.6-1.8c-15.7-0.4-54.2-23.2-62.3-27.8
	c-20.5-14.7-39.5-15.5-54.8-11.4c-16.3,4.3-28.3,14.2-33.3,18.9c-26.8,24.7-17.9,45.8-23.9,53.3c-5.4,4.8-29.9-8.4-52.2,21.9v14.4
	c3.3,0.4,15.5,5.8,15.5,5.8s4.3-3.2,6.9-3.5c-1.5,1.1-2.3,3.6-2.5,5.3c0,3.2,1.8,9.2,1.8,9.2s15.3,0.4,24.6,3c1-3.4,6.7-7.3,9.9-7.8
	l-0.9,10.7l13.2,3.8l-6.6,2L59.1,526.9"/>
<path class="st2" d="M214.4,413.5c3.1,1,5.3,4.9,8.6,5.9c17.9,6.7,36.8,9.9,55.9,12.3c4.5,0.3,8.9,1.5,12.9,3.4
	c2.8,2.2,4.8,3.3,5,7.2c1.2,11.8-1.4,23.2,1,34.7c0.3,10.6-0.7,24.1-12.2,28.8l-1.4,0.2c3.7-13.4,2.6-24.5,2.2-38.8
	c0.1-2.5,1.1-6,0.1-6.8c-0.7-0.9-2.3-0.7-2.8,0.3c-7.2,8.8-3.6,19.7-4.1,30.4c0.8,10-3.7,18.6-11.5,25l-4.8,3.3
	c2.4-12.6-0.8-27.4,2.1-40.1c0.8-2.2,3.4-5.3-0.8-6.1c-3-0.3-5.8,2.6-6.8,5.7c-0.6,5.9-1.2,11-1,16.9c-1,21.2,0.6,29.4-15.8,34.3
	c-2.2,1-5.2,1.7-7.8,1.4c3.1-13.2,3-28.5,7.1-42.1c0.4-1.8,3.9-3.2,2-4.7c-2.4-1.3-5.9,1.7-7.8,4.2c-3.9,6.3-4.2,14.1-5.9,21.3
	c-1.8,7.8-1.3,17.4-8.7,22.7c-6.8,2.7-13.8,2.4-20.5,1c-8.6-0.7-17.1-3.7-23.9-9.4c4-2.2,7.7-3.9,11.7-6.1c1.8,2.4,4.6,4.5,7.5,4.5
	c2.1-2-1-3.1-1.6-4.6c-3.8-7.6-0.7-15.8,4-21.7c2.2-3.3,8.3-5.1,7.6-9.9c-2.3-1.5-3.2-0.7-5.4,0.9c-7.5,3.9-17.6,3.5-25.1,0.9
	c-3.2-2-7.6-3.9-9.1-7.5c-1-1-2.7-1.1-3,0.7c1.4,10.9-12,13.2-18,15.1c-4.7,2.1-9.6,2-14.7,3.2c7.7-5.6,17.7-15,24.2-24.7
	c0.5-1-0.2-2-1.1-2.4c-5.3-1.9-6.7,3.6-9.7,6.6c-9.7,11.4-23.7,15.2-35.1,23.5c-4.4,0.7-8.8-0.9-12.9-2.3
	c7.2-6.7,17.8-9.2,25.2-16.3c5.8-4.5,11.2-9.9,15.2-16.3c0.4-2.1-2.1-3.3-3.4-2.9l-1.3,0.5c-13.1,15.9-39.6,12.2-55,26.2
	c-3.1-1-7,0.2-10.3-0.5c6.6-8.1,14.2-12.1,28.2-14.1c12.1-2.7,17-6.8,20.3-15.9c0.4-2.2-2-2.5-4-2.2c-2.3,0.9-4.3,1.7-6.7,3.5
	c-10,6.7-21.6,3-33.4,5.5c-8.2,0.8-13.2,7.4-20,11c-3.2,0.2-5.9-2-8.8-3.1c4.2-8.4,12.3-12.8,21.1-14.5c8.9-0.4,15.5-0.1,23.8,0.6
	c5.2-0.4,10.4-0.6,10.4-6.8c-2.4-19.6,7.1-37.6,22-51.4c12.4-10.1,28-19.2,44.9-16.3C181.3,391.2,197.9,402.1,214.4,413.5z"/>
<path class="st6" d="M93.3,471.9c-5.7,4.3-11.1,0.3-18.2,1.5c-8.4,0.5-16.6,5.7-23,11.3l-0.2-3.2c6.6-5.3,13-10.2,22.6-10.4
	C82.6,470.8,86.7,473.9,93.3,471.9z"/>
<path class="st6" d="M47.5,482.8l0.1,3.2c-3.4,0.6-7-2.2-10.4-3.4l0.2-2.6C41.1,479.6,44.1,483.7,47.5,482.8z"/>
<path class="st6" d="M110.2,485.1c-8.1,6.8-22.5,5.3-30.7,13.4c-1.3-0.5-1.5-2.5-1.6-4.3c7-7.6,19.4-6,28.9-9.1
	C108.9,484.3,110.4,484.3,110.2,485.1z"/>
<path class="st6" d="M74.6,496.5c0.8,1.2,1.2,2.6,0.8,4.1c-5.4,0.1-10.4-2.3-15.5-1.3l-0.5-4.1C64.1,494.5,70.3,495.1,74.6,496.5z"
	/>
<path class="st6" d="M104.1,506.1c-2.3,6.1-7.5-0.1-11.5,1l0.5-3.9C96.8,503.9,100.2,505.8,104.1,506.1z"/>
<g>
	<path class="st7" d="M226,467.2c2.1,1.8,3.5,3.4,5.7,5c0.3,0.8-0.5,1.1-0.9,1.7c-3-0.2-3.3-3.5-5.7-5
		C225,467.9,225.3,467.5,226,467.2z"/>
	<path class="st7" d="M106.8,446c0.5-0.4,1.2-0.2,1.6-0.4c0.6,3,0.6,6.7-0.3,9.9c-0.7,0.1-1.3-0.1-1.7-0.7L106.8,446z"/>
	<path class="st7" d="M111.6,428.5c0.5-0.2,1.5-0.2,1.7,0.7c-0.8,3.7-3.6,6.7-4.6,10.4l-1.4-0.9C108,435,109.4,431.4,111.6,428.5z"
		/>
	<path class="st7" d="M120,415.6c0.5-0.1,1.1,0.1,1.2,0.7l0.1,1.3l-5.7,6.8c-1,0.3-1.7-0.3-1.4-1.4C115.8,420.5,117.7,418,120,415.6
		z"/>
	<path class="st7" d="M129.1,406.6c0.7,0,1.6-0.2,1.7,0.6v1l-6.7,5c-0.6-0.4-1.2-0.4-0.9-1.3L129.1,406.6z"/>
	<path class="st7" d="M133.5,403.8c2.2-1.6,4.6-2.4,6.9-3.7c0.9,0.4,0.3,1.2,0.6,1.9c-2.6,0.6-4.9,3.9-7.4,2.7L133.5,403.8z"/>
	<path class="st7" d="M149.8,396.2c1.2,0,2.6-1.4,3.6,0v1c-2.6,0.5-5.4,2.2-7.9,1.5C145.6,396.6,148.5,397,149.8,396.2z"/>
	<path class="st7" d="M171.7,442.9c0.5-0.2,0.9-0.6,1.6-0.4c0.9,0.3,0.9,1.5,0.3,2c-1.9,2.2-2.1,5.7-4.7,6.9l-0.7-0.8L171.7,442.9z"
		/>
	<path class="st7" d="M159.5,393.7c0.2,0.8,0.8,1.3,0.1,1.9c-1.1,0.3-2.8,0.7-3.7-0.6C156.7,394.1,158,393.5,159.5,393.7z"/>
	<path class="st7" d="M193.5,444.3c3.2,2.7,7.2,3.9,10.3,6.7l0.1,1.3c-3.6-1.9-7.8-3.1-11-6.4C193.3,445.5,193,444.7,193.5,444.3z"
		/>
	<path class="st7" d="M205.2,422.3c0.7,0.3,1.7,1.1,1,1.9c-2.1,1-4.8,1.1-6.9,2.1c-0.9-0.2-1.3-1.2-0.8-1.8L205.2,422.3z"/>
	<path class="st7" d="M203.9,437.1c1-0.1,1.5,0,1.9,0.9c3.6,2,7.4,2.8,11.1,4.8v1l-2.5,0.1c-3.5-1.9-8.3-2.1-10.7-5.6
		C203.9,437.9,204.1,437.6,203.9,437.1z"/>
	<path class="st7" d="M206.2,453.2c2.6,0.5,4.5,3.2,6.7,4.5c0.4,0.7,0.2,1.5,0.3,2.2c-0.5,0.5-1.8,0.4-1.7-0.6
		c-2-1.4-4.2-2.9-5.6-4.8L206.2,453.2z"/>
	<path class="st7" d="M211.7,421.2c1.8,0.2,4.2-0.9,5.2,0.7c-1.4,2.2-4.9,1-7.2,1.1C209,421.3,210.8,421,211.7,421.2z"/>
	<path class="st7" d="M215.1,432l10.6,0.9c0.1,0.5,0.6,0.8,0.4,1.4l-0.7,0.7c-3.6-0.3-7.3-0.5-10.8-1.2
		C214.9,433.2,214.3,432.4,215.1,432z"/>
	<path class="st7" d="M216.5,460.4c2.5,1.3,4.1,2.4,6.1,4.3c0,0.7,0.2,1.6-0.6,1.7l-5.9-4.3C216.1,461.5,215.7,460.7,216.5,460.4z"
		/>
	<path class="st7" d="M220.1,443.7c3.1,0.5,6.7,1.3,9.5,3.3l0.1,1.5c-3.1-0.5-6.5-2-9.5-3.4L220.1,443.7z"/>
	<path class="st7" d="M230.3,433.2l7.4,0.4c0.4,0.6,0.6,1.1,0.6,1.9c-0.4-0.2-0.5,0.3-0.7,0.4c-2.6-0.8-6.1,0.2-8.4-1.2
		C228.9,433.5,229.7,433.2,230.3,433.2z"/>
	<path class="st7" d="M233.3,448.2c3.3-0.4,6.1,2,9.2,2.5c0,0.7,1.1,1.4,0.1,1.8c-3.2-0.6-6.4-1.7-9.4-3L233.3,448.2z"/>
	<path class="st7" d="M241.6,434.8c3.1-0.7,6,0.6,9.1,0.8c0,0.6,0.9,1.1,0.3,1.8c-3.1,0.3-6.2-0.8-9.3-1.3L241.6,434.8z"/>
	<path class="st7" d="M252,454.1c0.4,0.4,0.2,1.1,0.3,1.5c-1.7,0.6-3.8-0.7-5.7-1.1c-0.9-0.5-1-1.2-0.6-2.1
		C247.9,452.6,250.2,453.3,252,454.1z"/>
	<path class="st7" d="M259.6,437c1.8,0.6,4,0.2,5.1,1.6c0.2,1.3-1.1,1.8-2.1,1.2c-2.3-0.4-4.9-0.7-7.2-1.1
		C253.3,435.6,258.2,437.3,259.6,437z"/>
	<path class="st7" d="M176.3,438.4c2-2.4,4.6-4.4,7-6c2.5,3-2.7,2.8-3.4,5.2C179.1,438.6,175.8,442.4,176.3,438.4z"/>
	<path class="st7" d="M187.6,429.6c2.2-1.3,4.6-2.9,7.1-3c0.2,0.5,0.7,1.1,0.3,1.6l-6.7,3.2C187.4,431.5,187.2,430.3,187.6,429.6z"
		/>
</g>
<path class="st7" d="M171.5,398.7c-0.6,0.1-14.9,2.1-18.8,8.5c-0.7,1.1-1,2.2-1,3.4c0,0.6,0.2,1.3,0.4,1.9
	c-24.3,6.9-26.8,17.5-26.9,17.9c0,0.1,0,0.1,0,0.2c0,0.4,0.3,0.7,0.7,0.8c0.5,0.1,0.9-0.2,1-0.7c0-0.1,2.6-10.1,25.8-16.6
	c2.1,4.7,5.8,8.1,10.7,9.6c4.8,1.5,10,0.9,13.5-1.6c2.7-1.9,3.7-4.7,2.5-7.2c-1.9-4-9.8-7.1-25.6-2.9c-0.1-0.5-0.3-1-0.3-1.5
	c0-0.9,0.3-1.8,0.8-2.6c3.4-5.8,17.4-7.7,17.5-7.7c0.4-0.1,0.8-0.4,0.8-0.9v-0.1C172.4,399,172,398.6,171.5,398.7z M177.9,415.7
	c0.8,1.8,0.1,3.7-2,5.1c-3.1,2.2-7.8,2.6-12,1.4c-4.3-1.4-7.6-4.4-9.5-8.5C168.3,410.1,176.2,412.1,177.9,415.7z"/>
<path class="st6" d="M101.1,524.7c5.4-0.7,11.3,15.6,6.4,19.6l77.1-31.4c-1.8-2.9,1.8-9.1,1.8-9.1c-7.8,2.4-10.5-5.8-19.5-2.6
	L101.1,524.7z"/>
<path class="st6" d="M64.6,533.6c-9.7,3.8-3.6,33.5,10.8,27.4C82.5,557.4,79.6,527.8,64.6,533.6z"/>
<path class="st2" d="M75.3,530.5c5.6-1.2,15.3,14.4,8.8,26.6l16.6-9.6c4.5-5.1,0.3-18.9-7.9-20.8C89,527.8,75.3,530.5,75.3,530.5z"
	/>
<g>
	<path class="st2" d="M575.2,342.4c20-1.9,37.2-12.1,56.5-16c14.1-3.1,29.6-2.3,43-7c1.1-3.1,1.1-6.9,1.4-10.7
		c-0.3-2.1-0.7-4.1-1.4-6.4c-7.3-14.2-16.7-29.8-30.7-38.2c-5.5-2.6-11.6-7.5-17.4-6c-5.8,2.2-10.6,8.3-15.9,12.5
		c-11.7,16.5-31,26.8-45.2,40.3c-2.6,4-4.8,8.1-6.7,12.4c-2.1,4.5,1.4,7.7,2.1,11.5C564.1,339.6,569.2,342.1,575.2,342.4z"/>
	<path class="st3" d="M610.1,325.4c-2.5,0.3-7.4,2.7-10.1,4v4.1l2,2.2l0,0c3.5-1.3,6.9-2.5,10.5-3.7c0.2-1.2,0.4-2.2,0.4-2.2
		S611.2,326.7,610.1,325.4z"/>
	<path class="st3" d="M597.1,334.1c0,0-1.3-2.2-2.8-2.6c-2.1,0.2-6.7,3.3-8.8,4.4l0.2,3l2,1.3c0.8-0.2,1.6-0.4,2.3-0.6
		c1.8-0.7,4.3-1.8,6.3-2.2C596.5,336,597.1,334.1,597.1,334.1z"/>
	<path class="st3" d="M579.6,338.2c-1.4,0.2-5.1,2.1-8.2,3.7c1.3,0.3,2.4,0.5,3.8,0.6c2.2-0.2,4.5-0.6,6.7-1c0.4-0.8,1-1.6,1-1.6
		S581.4,339,579.6,338.2z"/>
	<path class="st3" d="M598.4,323.1c-1.9-1-5.5-4-5.5-4s-1.4-3.4-2.1-7.4l9.5-6.4c3.1,2.1,6.7,5.2,6.7,5.2s1,6.2,0.5,8
		C605.1,320.1,600.7,321.8,598.4,323.1z"/>
	<path class="st3" d="M582.8,331.9c-1.9-0.4-5.4-4.4-5.4-4.4s-0.8-3.7-1.2-6.6l9-5c3.4,2.4,6.3,3.9,6.3,3.9s0.1,3.9,0.8,6
		C589.7,327.1,585.4,330.2,582.8,331.9z"/>
	<path class="st3" d="M575.4,328.9c0,0-3.1-2-5.4-3.4l-10,6.6c0,0.3,0,0.5,0.1,0.8c0.3,0.7,0.5,1.4,0.6,2.1c1.6,2.2,3.6,4,5.9,5.2
		c2.8-1.2,7.7-3.9,9.7-5.8C575.8,332.9,575.4,328.9,575.4,328.9z"/>
	<path class="st3" d="M602.9,296c2.5-2,7.5-4.8,10.1-7c-0.2-3.2-2-9.5-2-9.5s-2.9-1.7-5.5-2.8c-3.4,3.8-7.1,7.2-11.1,10.6l2,6.5
		C596.5,293.7,601.1,295.6,602.9,296z"/>
	<path class="st3" d="M587.6,308c3.7-3.6,5.3-3.5,8-7c-0.2-1.3-0.4-5.3-0.4-5.3s-4.6-2-6.1-3c-0.3-0.1-0.7-0.2-1-0.3
		c-2.8,2.2-5.8,4.4-8.6,6.7l4,7.6L587.6,308z"/>
	<path class="st3" d="M558.4,328.5c3.5-2.4,5.9-4.2,9.7-7.8c-0.1-1.3-0.3-3.7-0.3-3.7s-2.7-1.3-3.4-1.8c-1.1,0.9-2.2,1.7-3,2.5
		c-1,1.9-1.9,3.7-2.6,5.7C557.8,325.2,558,326.9,558.4,328.5z"/>
	<path class="st3" d="M574.4,317.5c2.7-2,5.1-2.9,7.6-5.6c0.2-1.4-0.4-4.3-0.4-4.3s-5.5-3.9-6.7-4.9c-2.7,2.2-5.3,4.4-7.8,6.7
		c0.6,2.4,2.6,6.3,2.6,6.3L574.4,317.5z"/>
	<path class="st3" d="M671.6,304.2c-3.9-1.1-7.9,1.4-11.3,2.4c-0.1,3.5-2,11.9-2,11.9s1.3,1.9,2.7,4c4.8-0.7,9.4-1.7,13.8-3.1
		c0.2-0.5,0.3-1.1,0.4-1.6c0.1-2.4,0.1-4.5,0.1-4.5S673.2,306.9,671.6,304.2z"/>
	<path class="st3" d="M649.6,290.8c0,0,5.3,6.3,8.1,8.5c3.4-0.9,7.6-2.1,10.8-4.1c0,0-0.2-2.3-0.6-5.2c-3-5-6.5-9.9-10.4-14.3
		c-3.8,0.6-6.4,2.8-9,4.7C648.8,284.1,649.6,290.8,649.6,290.8z"/>
	<path class="st3" d="M656.2,318.8c0,0-2.4-6-5.1-9.6c-4.4,0.9-11,2.8-15,5c-0.4,4.2-1.5,10-1.5,10s0.4,0.6,1,1.4
		c6.7-1.2,13.6-1.7,20.3-2.4C656.2,320.8,656.2,318.8,656.2,318.8z"/>
	<path class="st3" d="M635.2,306.5c-2.2-2-6.6-6.7-6.6-6.7s-1.5-5.1-2.1-9.2l11.8-6.4c3,1.2,9.1,7.2,9.1,7.2s0.6,6.5,0.6,10
		C643.8,302.9,639.6,305.3,635.2,306.5z"/>
	<path class="st3" d="M642.3,273.2l7.9-4.5c-2.1-1.7-4.1-3.2-6.4-4.6c-4-2-8.4-5.1-12.8-6c1,3.8,2.3,7.4,2.3,7.4
		S639.4,271.5,642.3,273.2z"/>
	<path class="st3" d="M626.9,317.5c-3.4,1.9-7.5,2.3-9.7,4.2c-0.9,2.2-1.2,7.1-1.2,7.1s0.3,0.7,0.7,1.7c4.9-1.7,9.8-3.1,14.9-4.1
		c0.1,0,0.2,0,0.3-0.1c0.2-1,0.3-1.8,0.3-1.8S629.3,319.6,626.9,317.5z"/>
	<path class="st3" d="M615.2,315.6c-1.8-1.6-6-6.1-6-6.1s-1-4.4-0.9-9.3l10.1-5.7c2.9,2.7,7.7,6.7,7.7,6.7s0.6,5.4,0.3,8.5
		C623.9,311.7,618.2,314.3,615.2,315.6z"/>
	<path class="st3" d="M621.9,283.5l12.5-6.8c-1.2-3.9-3.5-10.5-3.5-10.5s-3.9-3.2-7.9-6.2c-4.3,2.8-8.1,7.2-12.3,10.6
		c0,0,0,0-0.1,0.1c1.2,3.4,2.9,6.9,2.9,6.9S619,282.2,621.9,283.5z"/>
</g>
<path class="st6" d="M659.2,253.8c11.3,3.8,20.7,13.7,26.6,24.4c2.2,3.2,4.7,7.9,5.2,12.9c1.1,7.5-0.7,15.7-6.2,21.1
	c-0.4-8.3-2.4-14.9-6.7-23.1c-1.7-3.8-4.1-7.1-6.4-10.6c-2.5-3.6-4.2-7.2-9-11.9c-5.3-5.6-8.9-8.7-16-11.2L645,255
	C654.1,252,654.9,252.6,659.2,253.8z"/>
</svg>
