<?xml version="1.0" encoding="UTF-8" standalone="no"?>
<!-- Created with Inkscape (http://www.inkscape.org/) -->

<svg
   xmlns:dc="http://purl.org/dc/elements/1.1/"
   xmlns:cc="http://creativecommons.org/ns#"
   xmlns:rdf="http://www.w3.org/1999/02/22-rdf-syntax-ns#"
   xmlns:svg="http://www.w3.org/2000/svg"
   xmlns="http://www.w3.org/2000/svg"
   xmlns:sodipodi="http://sodipodi.sourceforge.net/DTD/sodipodi-0.dtd"
   xmlns:inkscape="http://www.inkscape.org/namespaces/inkscape"
   id="svg16429"
   version="1.1"
   inkscape:version="0.48.2 r9819"
   width="1000"
   height="932.6413"
   xml:space="preserve"
   sodipodi:docname="mg0506_staff.pdf"><metadata
     id="metadata16435"><rdf:RDF><cc:Work
         rdf:about=""><dc:format>image/svg+xml</dc:format><dc:type
           rdf:resource="http://purl.org/dc/dcmitype/StillImage" /><dc:title></dc:title></cc:Work></rdf:RDF></metadata><defs
     id="defs16433"><clipPath
       clipPathUnits="userSpaceOnUse"
       id="clipPath16445"><path
         d="M 0,612 396,612 396,0 0,0 0,612 z"
         id="path16447"
         inkscape:connector-curvature="0" /></clipPath><clipPath
       clipPathUnits="userSpaceOnUse"
       id="clipPath16451"><path
         d="m 0,612.5 396,0 0,-612 -396,0 0,612 z"
         id="path16453"
         inkscape:connector-curvature="0" /></clipPath><clipPath
       clipPathUnits="userSpaceOnUse"
       id="clipPath16507"><path
         d="m 49.792,309.959 52.429,0 0,-61.42 -52.429,0 0,61.42 z"
         clip-rule="evenodd"
         id="path16509"
         inkscape:connector-curvature="0" /></clipPath><clipPath
       clipPathUnits="userSpaceOnUse"
       id="clipPath16519"><path
         d="M 0,612 396,612 396,0 0,0 0,612 z"
         id="path16521"
         inkscape:connector-curvature="0" /></clipPath><clipPath
       clipPathUnits="userSpaceOnUse"
       id="clipPath16525"><path
         d="m 0,612.5 396,0 0,-612 -396,0 0,612 z"
         id="path16527"
         inkscape:connector-curvature="0" /></clipPath><clipPath
       clipPathUnits="userSpaceOnUse"
       id="clipPath16629"><path
         d="m 49.725,124.303 52.429,0 0,-61.42 -52.429,0 0,61.42 z"
         clip-rule="evenodd"
         id="path16631"
         inkscape:connector-curvature="0" /></clipPath><clipPath
       clipPathUnits="userSpaceOnUse"
       id="clipPath16641"><path
         d="M 0,612 396,612 396,0 0,0 0,612 z"
         id="path16643"
         inkscape:connector-curvature="0" /></clipPath><clipPath
       clipPathUnits="userSpaceOnUse"
       id="clipPath16647"><path
         d="m 0,612.5 396,0 0,-612 -396,0 0,612 z"
         id="path16649"
         inkscape:connector-curvature="0" /></clipPath><clipPath
       clipPathUnits="userSpaceOnUse"
       id="clipPath16657"><path
         d="m 47.87,552.882 0,-110.427 118.411,0 0,110.427"
         id="path16659"
         inkscape:connector-curvature="0" /></clipPath><clipPath
       clipPathUnits="userSpaceOnUse"
       id="clipPath16781"><path
         d="m 365.556,337.5 c 0,-14.659 -11.897,-26.556 -26.556,-26.556 -14.659,0 -26.556,11.897 -26.556,26.556 0,14.659 11.897,26.556 26.556,26.556 14.659,0 26.556,-11.897 26.556,-26.556"
         clip-rule="evenodd"
         id="path16783"
         inkscape:connector-curvature="0" /></clipPath><clipPath
       clipPathUnits="userSpaceOnUse"
       id="clipPath16863"><path
         d="M 0,612 396,612 396,0 0,0 0,612 z"
         id="path16865"
         inkscape:connector-curvature="0" /></clipPath><clipPath
       clipPathUnits="userSpaceOnUse"
       id="clipPath16869"><path
         d="m 0,612.5 396,0 0,-612 -396,0 0,612 z"
         id="path16871"
         inkscape:connector-curvature="0" /></clipPath><clipPath
       clipPathUnits="userSpaceOnUse"
       id="clipPath16879"><path
         d="m -9,616.184 29.593,0 L 20.593,-9 -9,-9 -9,616.184 z"
         clip-rule="evenodd"
         id="path16881"
         inkscape:connector-curvature="0" /></clipPath><clipPath
       clipPathUnits="userSpaceOnUse"
       id="clipPath16885"><path
         d="M 0,612 396,612 396,0 0,0 0,612 z"
         id="path16887"
         inkscape:connector-curvature="0" /></clipPath><clipPath
       clipPathUnits="userSpaceOnUse"
       id="clipPath16891"><path
         d="m 0,612.5 396,0 0,-612 -396,0 0,612 z"
         id="path16893"
         inkscape:connector-curvature="0" /></clipPath><clipPath
       clipPathUnits="userSpaceOnUse"
       id="clipPath16903"><path
         d="M 0,612 396,612 396,0 0,0 0,612 z"
         id="path16905"
         inkscape:connector-curvature="0" /></clipPath><clipPath
       clipPathUnits="userSpaceOnUse"
       id="clipPath16909"><path
         d="m 0,612.5 396,0 0,-612 -396,0 0,612 z"
         id="path16911"
         inkscape:connector-curvature="0" /></clipPath><clipPath
       clipPathUnits="userSpaceOnUse"
       id="clipPath16919"><path
         d="M 0,612 396,612 396,0 0,0 0,612 z"
         id="path16921"
         inkscape:connector-curvature="0" /></clipPath><clipPath
       clipPathUnits="userSpaceOnUse"
       id="clipPath16925"><path
         d="m 0,612.5 396,0 0,-612 -396,0 0,612 z"
         id="path16927"
         inkscape:connector-curvature="0" /></clipPath></defs><sodipodi:namedview
     pagecolor="#ffffff"
     bordercolor="#666666"
     borderopacity="1"
     objecttolerance="10"
     gridtolerance="10"
     guidetolerance="10"
     inkscape:pageopacity="0"
     inkscape:pageshadow="2"
     inkscape:window-width="1206"
     inkscape:window-height="1045"
     id="namedview16431"
     showgrid="false"
     fit-margin-left="0.5"
     fit-margin-bottom="0.5"
     fit-margin-top="0.5"
     fit-margin-right="0.5"
     inkscape:zoom="0.50974265"
     inkscape:cx="639.35738"
     inkscape:cy="344.00101"
     inkscape:window-x="709"
     inkscape:window-y="-21"
     inkscape:window-maximized="0"
     inkscape:current-layer="g16437" /><g
     id="g16437"
     inkscape:groupmode="layer"
     inkscape:label="mg0506_staff"
     transform="matrix(1.25,0,0,-1.25,-59.337501,1485.21)"><g
       id="g16653"
       transform="matrix(6.7493729,0,0,6.7493729,-275.22248,-2543.8388)"><g
         id="g16655"
         clip-path="url(#clipPath16657)"><path
           d="m 138.795,507.162 0.164,-1.391 c 2.925,0.203 5.387,-1.945 6.255,-4.637 3.919,1.238 7.848,-3.259 5.366,-6.789 3.257,-2.03 4.827,-5.577 4.448,-9.358 l -0.04,-0.185 0.442,0.227 0.893,0.458 3.913,-16.909 -3.077,-0.876 1.641,-7.421 3.306,0.214 4.175,-18.04 -1.097,0.122 c -6.687,0.742 -13.379,1.441 -20.081,2.039 l -0.595,0.053 -0.725,4.043 -0.469,-0.238 c -1.698,-0.864 -3.808,-1.166 -4.991,-1.166 -1.598,0 -2.94,0.214 -4.063,0.622 l -0.591,0.214 0.032,-0.288 -9.634,0.186 -8.785,0.094 -0.036,0.736 c -0.063,1.27 -0.173,2.56 -0.219,3.84 l -1.792,-0.318 0.062,-4.25 -11.021,0 -7.515,-0.05 -4.049,-0.048 -6.122,-0.111 -7.262,-0.2 -0.279,-0.009 c -2.059,-0.122 -4.044,-0.195 -5.936,-0.222 l -0.472,-2.765 -9.308,-0.825 -13.463,-1.439 0.872,3.748 0.736,3.207 0.452,1.95 c 0.347,1.472 0.607,2.026 1.687,2.741 l 0.12,0.079 0.04,0.139 c 0.633,2.198 4.285,17.846 4.548,19.637 l 0.014,0.091 -0.654,1.998 2.193,9.428 0.893,-0.462 0.117,-0.06 c -1.634,4.382 -0.568,9.08 3.96,11.91 -1.947,3.203 0.037,7.421 3.683,8.109 0.559,2.97 4.616,3.645 6.086,0.996 0.939,0.244 1.925,0.299 2.885,0.151 -2.722,4.819 -0.968,10.903 2.813,14.598 4.987,4.872 8.555,0.121 13.321,3.11 2.796,1.753 3.629,7.214 -1.633,7.199 -1.248,-0.909 -5.306,-3.033 -5.138,0.175 0.024,0.46 0.133,1.035 0.516,1.346 -0.225,-1.358 1.602,-0.2 1.889,0.01 1.007,0.736 3.198,2.348 3.367,-0.235 6.776,-0.342 5.207,-10.272 -2.561,-10.83 -3.765,-0.269 -5.734,1.214 -8.988,-1.968 -3.297,-3.224 -4.871,-8.619 -1.723,-12.519 0.357,0.626 2.638,4.488 2.928,4.745 0.591,0.527 5.707,4.042 7.437,5.385 5.253,4.079 10.343,8.469 15.938,12.082 1.296,-0.796 2.714,-1.463 4.126,-2.021 -0.304,4.956 3.186,7.56 7.552,8.669 -2.45,-3.757 -3.88,-6.01 0.303,-9.375 1.954,0.711 3.455,2.019 5.201,3.077 4.01,-1.989 6.874,-4.728 9.08,-8.613 0.72,-0.251 7.451,-2.618 7.654,-2.934 0.173,-0.269 0.191,-0.56 0.383,-0.833 0.483,-0.686 4.767,-1.02 5.821,-0.575 2.719,1.146 3.012,4.164 3.27,6.723 3.04,-5.337 2.831,-11.649 -3.803,-13.662 l 1.684,-0.972 c -1.833,-2.455 -3.497,-2.216 -6.144,-1.557"
           style="fill:#231f20;fill-opacity:1;fill-rule:nonzero;stroke:none"
           id="path16661"
           inkscape:connector-curvature="0" /></g></g><path
       d="m 748.49541,753.10839 c 1.69409,-17.15691 -1.99782,-28.38786 -12.71582,-42.29832 -23.33258,-11.27145 -46.89464,-21.89497 -71.11139,-31.64106 l -3.97538,-1.60635 5.3725,-30.00771 -3.93489,0.96516 c -5.59523,1.36337 -11.00823,2.01131 -15.11184,2.01131 -23.59581,0 -41.41416,-9.1994 -50.6473,-25.8501 l -2.27454,-4.10362 -1.35662,0.0742 -3.18571,12.02064 -1.18114,4.49508 -4.60307,-0.60744 c -8.33547,-1.08665 -16.65745,-2.09231 -24.98618,-3.01697 -2.96297,9.76634 -10.1848,28.77932 -22.0097,48.30526 -0.36447,0.81667 1.46461,5.47374 1.0934,6.29716 -5.32526,11.71017 -10.77875,22.5969 -18.42579,33.84136 1.20814,1.27563 30.75014,-2.96297 55.79032,-4.8663 7.30957,-0.55345 9.35463,-2.09905 18.58777,4.77856 -3.2397,-6.45915 -5.22402,-20.22787 -4.31285,-21.70599 -26.13357,0.19574 -26.26181,0.12824 -31.67481,-8.44346 -8.22073,-13.01954 4.58283,-34.44205 5.87871,-32.53198 20.66658,3.90114 32.10001,-2.20029 32.10001,-2.20029 0,0 3.11146,10.61676 32.68722,23.56206 -13.41776,36.12264 33.20016,80.08131 30.85813,84.44815 -6.48615,12.08138 -14.43016,54.61593 -15.84078,63.37661 7.36357,6.25667 16.69795,14.76763 18.64852,19.22222 1.33637,3.04396 2.21379,9.77309 1.00566,15.84753 9.57736,-0.27673 15.81378,-3.01697 22.48891,-9.88784 7.74828,-7.97776 10.42103,-16.04326 8.96316,-27.07173 4.76506,5.43324 11.8519,7.86977 17.2514,6.72912 10.23205,-2.16655 16.80594,-9.71909 17.92634,-20.28861 1.03265,-9.79334 -4.57608,-17.85209 -13.12754,-22.73864 l 6.31067,-3.02372 8.81468,1.22839 c 10.76525,-10.77875 15.19959,-20.15363 16.69795,-35.31272 z m -47.31311,19.9309 c -4.98103,12.26361 -17.64961,18.54052 -30.42617,15.07135 11.8249,-1.35663 19.89715,-7.74828 23.92653,-18.95224 3.77965,-10.49528 2.21379,-19.56643 -4.8798,-28.18538 11.62917,6.3984 16.37398,19.76891 11.37944,32.06627"
       style="fill:#ffffff;fill-opacity:1;fill-rule:nonzero;stroke:none"
       id="path16663"
       inkscape:connector-curvature="0" /><path
       d="m 250.50642,869.11661 c 6.64139,12.25686 14.07245,24.60147 22.45517,37.35778 20.64633,13.33001 135.72989,103.67711 151.69215,113.96991 9.97558,-4.7516 20.05914,-9.8136 30.55442,-13.7215 2.5985,-11.47391 8.78093,-23.19082 19.06023,-34.09781 l -14.05895,2.23405 c 0,0 1.40387,-17.94659 7.52555,-27.00424 5.29151,-7.82928 16.25249,-14.43691 18.95899,-15.77329 -14.03195,-12.36485 -26.03908,-30.43967 -26.03908,-30.43967 0,0 20.72732,-47.63708 50.03985,-63.76133 l 5.66947,-24.81744 c -49.9791,6.62788 -97.17747,42.5278 -93.14809,156.43022 -31.78955,-152.82606 49.93861,-142.92473 107.47026,-277.93918 1.04616,-1.93032 -0.0945,-7.48506 -0.0945,-7.48506 -7.29607,0.41846 -11.35244,-0.58719 -18.52028,-1.74808 -7.29607,-1.19464 -11.45368,-1.97082 -18.46628,-4.31285 -11.10272,-3.71216 -17.60912,-6.96536 -26.50479,-13.43126 -0.77618,-0.12823 -1.23513,-0.027 -1.26213,0.39822 31.31034,44.74834 -45.61901,104.26431 -45.61901,104.26431 -49.50665,19.02648 -65.21919,66.29909 -57.59915,103.67712 l -20.38311,4.61657 18.63502,58.02436 -28.15838,-64.84123 23.42707,-4.69081 c -4.50858,-31.7288 1.82233,-61.14257 12.37835,-84.79912 1.86283,-4.17112 -7.29607,-12.74957 -22.0637,-23.17735 -4.09012,2.72 -8.70669,5.22401 -13.76872,7.85627 -11.65617,6.06769 -19.83641,7.82252 -32.95719,7.07334 5.57498,13.75522 5.60198,24.27075 0.0945,38.05297 -2.34203,5.8652 -6.10143,11.04872 -10.15105,15.32107 6.58738,22.34718 6.70887,39.20711 0.37121,63.0189 0.51295,-22.0502 -1.86283,-37.25654 -9.36813,-55.12888 -1.82908,1.32963 -3.53667,2.42303 -5.00128,3.2532 -3.54343,14.13319 -13.00605,25.41139 -25.16842,31.62081 z m 292.59882,151.05099 c 8.49071,-11.4875 14.76088,-22.74541 19.22896,-33.60515 -2.13955,-0.37122 -8.67969,-1.15414 -8.67969,-1.15414 0,0 -7.69429,1.98431 -16.61021,6.13518 -4.87979,2.27454 -13.3705,7.40406 -21.48325,13.15451 10.65051,3.5164 17.80484,7.6268 27.54419,15.4696"
       style="fill:#005cab;fill-opacity:1;fill-rule:nonzero;stroke:none"
       id="path16665"
       inkscape:connector-curvature="0" /><path
       d="m 250.63466,869.04912 c 6.66163,12.52683 14.0522,24.97943 22.27968,37.49951 20.63958,13.32327 113.63245,85.11635 113.63245,85.11635 0,0 -53.3403,-115.39403 -58.07836,-133.30687 l 20.28187,-2.59851 c 0,0 -3.97538,-26.68027 -0.69519,-40.395 -9.82709,-11.23095 -25.46538,-18.03432 -40.70547,-13.88346 6.33766,19.3977 -8.61895,47.74507 -12.64832,57.49791 -0.10799,9.45587 -1.66035,19.14797 -4.65707,30.39243 0.51295,-22.0502 -1.86283,-37.26329 -9.37488,-55.13563 -1.84933,1.34988 -3.58392,2.45002 -5.06878,3.2937 -3.52317,14.05894 -12.9048,25.2899 -24.96593,31.51957"
       style="fill:#cacbcd;fill-opacity:1;fill-rule:nonzero;stroke:none"
       id="path16667"
       inkscape:connector-curvature="0" /><path
       d="m 388.32862,904.35509 c -13.31651,-27.41596 -15.27383,-48.40651 -7.26233,-77.81352 6.68863,-24.51373 15.53031,-38.51193 34.79977,-55.06814 -21.67224,9.01716 -33.49714,19.81616 -44.45137,40.57723 -11.09597,21.03105 -13.29626,37.1823 -8.22748,60.41364 l 25.14141,31.89079"
       style="fill:#cacbcd;fill-opacity:1;fill-rule:evenodd;stroke:none"
       id="path16669"
       inkscape:connector-curvature="0" /><path
       d="m 254.71803,858.34461 c 7.84952,-6.27017 9.36813,-12.30411 9.39513,-20.21437 -3.82689,0.0675 -6.68863,-0.44546 -10.8125,-1.81558 -6.29716,-2.09231 -9.79334,-4.3196 -14.34241,-9.15215 5.9327,3.57042 9.93507,4.92704 16.81268,5.70997 3.94164,0.44546 6.81012,0.4792 10.01607,0.0135 13.75523,-3.56367 22.42142,-11.48744 27.5307,-25.10767 5.99344,-15.97577 2.93597,-30.60166 -8.95642,-42.84502 13.86321,3.19245 23.1706,2.47027 36.37237,-2.83474 25.04017,-10.05656 38.7144,-30.70289 38.20145,-57.68014 21.72623,26.79501 78.66394,18.84425 88.40329,-3.14521 1.81558,-4.11036 2.35553,-37.44552 -12.04763,-73.24419 -6.02044,0.0135 -12.04763,0.0405 -18.07482,0.0945 -6.39841,0.22273 -12.80356,0.47246 -19.20872,0.75593 2.61201,7.71453 2.60526,14.09944 0.47921,22.82638 -3.73241,15.32783 -11.62242,24.66221 -26.11333,30.89188 12.35135,-9.6921 17.54162,-20.74082 17.11641,-36.43312 -0.17548,-6.67513 -1.15414,-11.73716 -3.45568,-16.71819 -8.52446,0.43196 -17.04216,0.92466 -25.55312,1.50511 -20.05914,1.97081 -40.05753,4.51533 -59.99518,7.40406 l -3.1857,0.63444 c -20.64634,4.16436 -41.02269,8.90242 -61.41255,14.15344 l -5.02828,1.28913 -2.72675,-9.90808 -2.06531,0.43196 -1.41061,5.50074 c -5.28476,20.57883 -19.27621,34.9415 -36.08215,46.00372 -10.63701,6.99235 -22.49566,12.75632 -34.07759,18.03433 l -7.91026,3.56366 c -14.43691,15.32783 -19.48544,34.69853 -14.46391,54.04898 5.13628,19.75542 15.13885,33.9831 34.75252,42.72353 -7.10034,5.23077 -10.2118,11.29845 -10.32654,20.11314 -0.20248,16.05 17.75085,29.37327 33.04493,24.52047 -3.73915,6.27016 -0.42521,17.51462 5.68298,17.84534 9.73934,0.52645 14.26817,-4.40734 17.53487,-12.37835 16.46172,5.02828 28.07064,4.46134 41.90685,-6.58739 z M 293.10172,701.8874 c 6.4254,13.01954 2.13955,28.11114 -10.17131,35.81217 -9.08465,5.67622 -17.91958,6.04069 -27.4362,1.13389 0.65469,24.98618 -18.50678,45.74725 -43.45921,47.09713 -23.96703,1.30263 -44.10715,-14.97011 -47.8733,-38.67391 9.55711,23.25834 35.38696,34.64453 59.00976,26.01209 20.35611,-7.43781 31.76255,-24.83095 30.47342,-46.46269 7.90352,8.40297 19.30996,10.06332 29.27878,4.25211 10.41428,-6.06094 14.5584,-17.94659 10.17806,-29.17079"
       style="fill:#ffffff;fill-opacity:1;fill-rule:nonzero;stroke:none"
       id="path16671"
       inkscape:connector-curvature="0" /><path
       d="m 487.28793,671.71095 c 0.027,0.32397 -0.20249,0.46571 -0.63445,0.45896 10.46828,6.31741 18.8915,9.21289 30.26419,11.16346 3.90114,0.67494 13.41776,1.22839 13.67423,0.73568 7.72803,-14.86887 17.7981,-28.88056 23.27859,-45.51777 -4.65707,2.97648 -12.72932,8.079 -22.90062,8.079 -0.29697,2.69975 -1.16764,9.68535 -5.9462,19.9444 0.42521,-16.54946 -2.65925,-26.26181 -4.67732,-26.32256 -11.97338,-0.35096 -31.39133,-5.52098 -47.94079,-11.89239 9.08465,8.74044 13.91721,32.8492 14.88237,43.35122"
       style="fill:#cacbcd;fill-opacity:1;fill-rule:nonzero;stroke:none"
       id="path16673"
       inkscape:connector-curvature="0" /><path
       d="m 388.45011,659.58233 c -4.02938,12.78331 -9.88108,20.09963 -21.46976,26.8355 11.50768,-10.34678 15.36158,-22.90737 11.64942,-37.93147 -1.93032,-7.83602 -4.46133,-12.31761 -10.1713,-18.02083 l 19.32345,-1.41737 c 4.06987,11.19046 4.24536,19.16822 0.66819,30.53417"
       style="fill:#cacbcd;fill-opacity:1;fill-rule:evenodd;stroke:none"
       id="path16675"
       inkscape:connector-curvature="0" /><path
       d="m 356.70106,723.99159 c 3.14521,-10.77874 3.63791,-19.37745 1.26888,-28.61734 -3.98213,2.72675 -8.67294,4.50183 -13.74847,4.97429 2.27454,6.4254 3.2262,13.57299 2.88873,21.47651 -0.61419,14.59214 -4.54233,23.87928 -14.56515,34.50279 13.24227,-8.51096 19.74867,-17.2244 24.15601,-32.33625"
       style="fill:#cacbcd;fill-opacity:1;fill-rule:evenodd;stroke:none"
       id="path16677"
       inkscape:connector-curvature="0" /><path
       d="m 292.08256,811.84143 c 7.13409,-14.64614 5.75722,-30.6894 -4.38034,-46.48293 l -16.60346,-5.79096 c 11.21746,9.67185 15.82728,19.69467 15.85428,34.50279 0.0337,17.3054 -6.80337,29.65675 -21.48326,38.8224 12.79681,-3.36794 20.68683,-8.88218 26.61278,-21.0513"
       style="fill:#cacbcd;fill-opacity:1;fill-rule:evenodd;stroke:none"
       id="path16679"
       inkscape:connector-curvature="0" /><path
       d="m 248.67059,752.73042 c 4.60308,-7.90351 4.80556,-19.10072 4.97429,-26.70727 -4.59632,-2.90897 -3.92138,-3.6649 -8.53795,-9.32763 3.19245,13.15453 0.96516,24.46648 -7.0261,36.68959 -9.60436,14.70689 -21.69924,21.51025 -39.24761,22.0772 21.26053,2.96298 39.03163,-4.19136 49.83737,-22.73189"
       style="fill:#cacbcd;fill-opacity:1;fill-rule:evenodd;stroke:none"
       id="path16681"
       inkscape:connector-curvature="0" /><path
       d="m 729.37443,824.62474 c -5.41299,6.4929 -11.2917,9.16565 -19.74191,8.96317 11.05547,-2.40952 18.19631,-11.39294 18.05457,-22.70489 -0.12824,-9.84733 -5.06203,-17.13666 -14.15343,-20.90281 l 9.50311,-2.693 c 12.66858,7.59305 15.78679,25.98509 6.33766,37.33753"
       style="fill:#cacbcd;fill-opacity:1;fill-rule:evenodd;stroke:none"
       id="path16683"
       inkscape:connector-curvature="0" /><path
       d="m 755.69024,753.91831 c -3.77965,15.80029 -10.29954,25.15492 -23.80504,34.17883 9.45587,-11.72366 13.03304,-20.9973 13.90371,-36.0349 1.0259,-17.56187 -2.65925,-29.22479 -13.58649,-43.00701 l 21.0243,10.49528 c 4.96079,12.49309 5.59523,21.30102 2.46352,34.3678"
       style="fill:#cacbcd;fill-opacity:1;fill-rule:evenodd;stroke:none"
       id="path16685"
       inkscape:connector-curvature="0" /><path
       d="m 560.39038,900.49445 c 1.74134,-1.76834 4.56933,-3.97539 5.56149,-5.75047 -9.59761,-3.57717 -17.16366,3.65816 -11.15672,12.44584 0.12824,-0.0135 3.69191,-4.75155 5.59523,-6.69537"
       style="fill:#ffffff;fill-opacity:1;fill-rule:nonzero;stroke:none"
       id="path16687"
       inkscape:connector-curvature="0" /><path
       d="m 525.28015,958.39732 c 0,0 -2.03157,0.85717 -2.81449,1.24863 -20.53834,10.37379 -48.13653,25.68811 -53.54953,46.73945 -6.30391,24.5272 -0.027,48.0217 22.44842,57.8961 -8.88218,-14.9566 -13.89021,-30.5409 2.45002,-48.8925 11.45369,-12.871 35.22498,-28.13137 51.81494,-32.91667 -1.08665,-17.39988 -20.34936,-24.07501 -20.34936,-24.07501"
       style="fill:#ffffff;fill-opacity:1;fill-rule:nonzero;stroke:none"
       id="path16689"
       inkscape:connector-curvature="0" /><path
       d="m 538.50892,979.48911 c -10.58302,3.7594 -16.40773,6.65488 -25.79611,12.81706 -12.3581,8.11273 -18.79025,13.97123 -28.02339,25.51263 7.74153,-14.0454 13.97795,-21.43601 26.53853,-31.40484 8.49071,-6.73587 13.91046,-9.96882 23.87253,-14.22093 0.90442,0.87742 1.36338,1.46462 1.98432,2.56477 0.94491,1.68059 1.28238,2.80774 1.42412,4.73131"
       style="fill:#cacbcd;fill-opacity:1;fill-rule:evenodd;stroke:none"
       id="path16691"
       inkscape:connector-curvature="0" /><path
       d="m 636.6853,832.6565 c 0,0 -3.89439,18.58102 -5.17677,36.5276 l 3.24645,4.18462 c 6.68862,-8.7067 18.44603,2.09905 14.14668,15.24008 l 9.48287,10.21855 -27.51044,-12.85081 c 0.73568,6.16893 1.27563,9.63811 2.44327,15.73279 3.7324,19.51244 13.08703,44.54586 15.05785,48.66298 0.72218,-0.32397 1.15414,-0.55345 1.25538,-0.67494 2.1733,-2.61875 7.68079,-14.03869 8.76069,-25.58012 1.01241,-5.03503 1.45786,-9.04416 1.67384,-10.52902 l 4.9068,-8.94292 29.17079,-14.90936 c -2.09906,-1.60636 -10.48178,-6.93161 -16.33348,-5.31851 -9.49637,2.60526 -21.59125,10.02957 -21.59125,10.02957 0,0 0.76268,-6.68863 1.28238,-10.36704 0,0 4.93379,-27.34846 1.1069,-33.20691 -6.9586,-10.66401 -21.92196,-18.21656 -21.92196,-18.21656 z m 14.70013,77.69878 -2.54451,7.64029 -7.62005,-14.28842 10.16456,6.64813"
       style="fill:#005cab;fill-opacity:1;fill-rule:nonzero;stroke:none"
       id="path16693"
       inkscape:connector-curvature="0" /><path
       d="m 602.54022,967.1445 10.83274,-10.24554 7.82252,3.33419 27.34846,-9.51662 c 0,0 -20.89605,-42.97326 -23.84553,-72.65025 -2.16655,-21.80048 3.39493,-56.08054 3.39493,-56.08054 l -10.43453,8.94967 -10.62351,9.57736 -0.62094,0.0607 -36.51411,3.71891 -0.95166,0.0337 c 4.46808,12.79007 12.61458,38.50518 13.22202,57.47766 0.66144,20.52485 -6.87086,52.19965 -6.87086,52.19965 0,0 2.73349,-31.59381 0.41846,-51.5787 l -0.14849,-1.22839 -36.0484,29.26528 10.57627,-15.32108 c -18.35829,-13.52574 0.11474,-33.65912 16.79244,-24.34498 l 5.18352,-7.5188 c -5.40625,-21.96246 -14.16694,-44.35688 -14.16694,-44.35688 l -24.58796,-31.54657 c -1.80208,-1.99107 -3.48943,-3.92814 -5.03503,-5.79771 l -5.32526,32.05952 14.26143,45.1263 -18.92524,-31.08761 c -27.011,17.52138 -44.65386,54.85891 -44.65386,54.85891 0,0 15.31433,29.48801 30.6624,40.25326 -2.26104,-0.59395 -4.56932,-1.58611 -6.8911,-2.88199 -2.18005,0.73569 -12.48634,4.3871 -17.60237,9.25339 -5.3995,5.12278 -9.29389,13.51225 -9.96207,16.27274 l 45.62576,-12.95204 9.80684,5.9192 c 4.00912,2.34203 5.58848,2.74024 8.025,4.44783 12.66182,2.26779 26.00533,16.212 29.58925,16.93418 l 39.64582,-12.63483 z m -48.08928,-15.75978 -8.47722,-8.52446 17.38639,-16.46847 -8.90917,24.99293"
       style="fill:#cacbcd;fill-opacity:1;fill-rule:nonzero;stroke:none"
       id="path16695"
       inkscape:connector-curvature="0" /><path
       d="m 639.817,880.42856 c -1.20813,-1.00566 -3.07771,-2.1058 -3.88763,-3.30719 4.52208,-5.29826 9.71234,-1.29588 7.95076,7.36356 -0.0743,0.0203 -2.74025,-2.95622 -4.06313,-4.05637"
       style="fill:#ffffff;fill-opacity:1;fill-rule:nonzero;stroke:none"
       id="path16697"
       inkscape:connector-curvature="0" /><path
       d="m 704.79997,915.91001 c -14.0252,-8.83493 -23.17735,-7.47155 -40.45574,-2.82123 0.41171,3.79314 -2.18005,24.92543 -3.94164,28.12463 14.78788,-6.24317 24.58122,-7.64704 37.28354,-2.00456 15.34132,6.81687 21.41576,17.62261 21.66549,34.40155 10.6775,-21.46975 5.73696,-44.91707 -14.55165,-57.70039"
       style="fill:#ffffff;fill-opacity:1;fill-rule:nonzero;stroke:none"
       id="path16699"
       inkscape:connector-curvature="0" /><path
       d="m 667.41519,933.46513 c 10.24555,-3.92813 17.82509,-3.98888 28.13139,-0.22273 6.97885,2.54452 10.81249,5.10928 15.82728,10.58302 -3.58392,-7.24883 -7.22183,-11.08247 -14.26818,-15.04435 -10.68425,-6.00019 -20.18062,-6.45915 -31.39133,-1.50511 0.46571,0.96516 0.69518,1.52536 1.00566,2.55126 0.41846,1.37687 0.57369,2.19355 0.69518,3.63791"
       style="fill:#cacbcd;fill-opacity:1;fill-rule:evenodd;stroke:none"
       id="path16701"
       inkscape:connector-curvature="0" /><path
       d="m 528.30387,801.48789 c 1.69409,2.06531 3.43543,4.07663 5.21051,6.05419 l 31.86379,28.24613 38.2352,-1.59285 25.93109,-20.14688 c -0.0742,-0.56695 -0.17548,-0.72894 -0.17548,-0.72894 l -20.92306,-24.05476 -0.68169,1.37012 c 0.74918,4.3601 -1.22838,8.18024 -5.22401,10.09706 0,0 5.04178,6.28367 10.59651,4.46809 -6.33091,9.95532 -25.39789,0.45221 -25.19541,-10.13756 0.0743,-3.67166 0.5332,-6.43215 3.17896,-8.85518 l 0.64119,-4.45458 c -9.30739,-0.86392 -17.27165,-0.18899 -27.32146,2.1598 l 5.19027,8.05875 c 2.86848,1.23513 5.50748,3.29369 7.43106,6.10818 6.9991,10.20505 2.26778,25.50588 -18.35155,25.88385 10.72475,-3.79315 8.37597,-11.13647 8.37597,-11.13647 -5.95294,4.08337 -15.0241,1.35662 -17.73735,-5.33875 -0.68169,-1.6806 -0.90442,-3.36794 -0.73568,-4.99454 l -10.11731,-9.17915 c -3.11821,1.74809 -6.30392,3.8134 -9.88783,6.33092 l -0.30372,1.84257"
       style="fill:#005cab;fill-opacity:1;fill-rule:nonzero;stroke:none"
       id="path16703"
       inkscape:connector-curvature="0" /><path
       d="m 534.66852,780.18012 -1.97081,4.52883 c -2.49052,5.70997 -12.60783,7.10034 -16.53597,2.26779 -4.63007,-5.70322 -1.47811,-11.2377 3.07772,-15.17934 -7.68079,-17.60236 16.19174,-20.51134 20.37635,-10.27929 l 1.16765,-0.22948 c 0.23622,-7.87652 14.80812,-8.69994 14.08594,1.50511 -0.34422,4.90679 -3.48268,5.92595 -7.20833,7.99801 l 20.16712,31.56006 -7.73478,1.23514 -25.42489,-23.40683"
       style="fill:#ffffff;fill-opacity:1;fill-rule:nonzero;stroke:none"
       id="path16705"
       inkscape:connector-curvature="0" /><path
       d="m 530.35567,767.70053 3.59067,-2.36903 11.68991,16.1445 -15.28058,-13.77547"
       style="fill:#cacbcd;fill-opacity:1;fill-rule:evenodd;stroke:none"
       id="path16707"
       inkscape:connector-curvature="0" /><path
       d="m 603.95084,751.01608 c -2.93598,-2.7065 -8.28148,-2.76724 -10.07682,1.77509 -1.70759,4.3061 3.27345,10.49527 7.68079,9.06441 l -4.8123,30.44642 4.76505,-1.00566 12.54709,-26.83551 c 2.61876,5.48724 14.0117,4.3871 15.52356,-1.50511 1.13389,-4.39384 -1.45112,-8.86192 -5.82471,-10.07006 -0.14174,-4.48158 -2.63226,-7.80228 -6.89786,-9.20615 -5.50074,-1.80883 -11.64267,1.68735 -12.9048,7.33657"
       style="fill:#ffffff;fill-opacity:1;fill-rule:nonzero;stroke:none"
       id="path16709"
       inkscape:connector-curvature="0" /><path
       d="m 607.64274,755.89588 4.25211,0.5062 -6.20942,12.20962 1.95731,-12.71582"
       style="fill:#cacbcd;fill-opacity:1;fill-rule:evenodd;stroke:none"
       id="path16711"
       inkscape:connector-curvature="0" /><path
       d="m 696.3565,506.97901 c 0,-13.66074 -29.38002,-18.58103 -37.98547,-18.58103 -48.65623,0 -48.4065,35.18448 -52.57086,70.31497 -1.38363,11.61567 -3.38144,23.50806 -3.38144,35.21148 0,28.59709 16.35373,43.41196 44.59986,43.41196 7.81577,0 28.03689,-3.36118 29.91997,-13.78222 l 0.67493,-3.89438 18.74301,-112.68078 z m -133.9818,-13.62699 -46.95539,0.5062 c -0.41171,8.35573 -1.23513,16.76545 -1.23513,25.12792 0,2.25429 1.23513,3.96863 3.17895,5.46024 2.01806,3.42868 9.69885,85.14334 10.44128,92.76338 16.98817,1.39038 33.8751,3.16546 50.77553,5.37251 2.96298,-11.23096 21.98946,-88.98374 26.984,-95.67912 7.18808,-9.64485 5.57498,-22.99511 6.85061,-34.51629 l -50.03985,0.96516 z m -93.28983,65.88738 c 3.27344,0.27672 3.47592,1.41737 3.47592,5.85846 0,2.89548 0.14174,5.67622 0.14174,8.22073 0,4.95404 -0.19573,7.08009 -3.84714,7.70104 l 0.22948,-21.78023 z m 0.66818,-33.74012 c 0.10799,-0.36446 0.21598,-0.65468 0.27673,-0.80992 0.94491,-0.78293 5.62223,-1.61985 5.62223,-1.61985 l 0.42521,-29.02905 -57.76789,0 0.23623,24.91193 c 0,0 1.55911,3.30045 1.98432,3.93489 4.09687,6.14868 2.639,49.81712 2.639,57.24143 0,5.19027 0.31047,4.70431 -3.97538,6.9586 l 0.26323,27.80742 c 18.23005,-0.24298 36.46686,-0.0135 54.69692,-0.0135 37.56701,0 42.49405,-19.65417 42.49405,-50.71479 0,-35.38696 -19.64743,-38.46467 -46.89465,-38.66716 z m -310.72763,114.42887 -8.74043,-41.32641 2.88198,-0.61419 c 2.40952,-0.4927 4.8258,-0.89767 7.08009,-0.89767 10.58977,0 12.85756,19.84316 12.85756,27.17298 0,11.47393 -5.11603,12.79681 -14.0792,15.66529 z M 143.73134,550.0805 c -1.22163,0.10124 -2.47027,0.17548 -3.72565,0.25648 -2.86173,-12.02739 -7.09359,-24.58122 -7.09359,-37.04056 0,-3.43543 2.89548,-3.08446 5.8652,-4.01588 l -9.28038,-44.69435 -64.571255,-6.91135 1.680594,7.22857 4.967539,21.65874 3.043967,13.12078 1.032654,4.31285 c 1.896574,7.74828 7.289323,6.02044 9.604358,10.53577 3.064215,5.97995 32.612973,134.596 32.612973,142.14855 0,4.2251 -1.90333,5.46699 -4.79881,7.95076 l 11.35245,48.79797 c 36.13614,-18.69577 89.31445,-30.40593 89.31445,-81.68092 0,-17.17715 -4.15761,-51.11975 -24.21,-64.07854 4.92029,-4.83255 7.38381,-11.13647 7.38381,-19.26271 0,-11.53468 -4.45458,-22.51591 -4.45458,-33.9831 0,-1.30937 -0.0203,-2.05181 0.14848,-2.47027 l 4.65707,-1.33637 -6.99235,-40.50299 -45.13306,-4.00238 c -0.58044,3.87414 -1.20138,7.67404 -1.20138,11.60217 0,21.88822 10.1578,42.31857 10.1578,64.07855 0,7.42431 -4.49508,7.78878 -10.36029,8.28823 z m 678.89243,-91.64298 c -37.0743,4.11711 -74.15536,7.89001 -111.30391,11.20395 l -7.30957,40.82021 c 0.37797,0.11474 4.06312,0.79643 5.359,1.80883 0.12824,0.25648 0.35097,0.95167 0.35097,2.58501 0,6.73588 -19.33695,109.97429 -21.01755,113.34222 -1.28913,2.55802 -3.30719,1.70085 -6.09468,1.82908 l -7.0396,39.30835 c 32.67372,13.16128 63.93681,28.0099 95.2539,44.09366 l 19.76217,-85.40657 -40.13177,-11.42669 c -1.0664,4.92704 -3.46918,23.00186 -10.21855,23.00186 -3.2802,0 -8.1735,-1.90332 -11.43344,-3.06421 l 6.82361,-33.92235 36.90558,7.80228 10.93398,-49.43916 -38.57942,-4.41409 8.16,-40.60423 10.33329,-0.11474 c 5.8922,0 6.71562,1.03941 6.71562,5.72347 0,8.57845 -2.90223,17.60911 -4.71106,25.96484 l 43.18249,2.79424 21.45625,-92.70264 -7.39731,0.81668"
       style="fill:#cacbcd;fill-opacity:1;fill-rule:nonzero;stroke:none"
       id="path16713"
       inkscape:connector-curvature="0" /><path
       d="m 246.26782,491.27996 -47.16462,-1.75483 c 2.05181,12.9318 1.41062,27.57793 8.81468,38.7684 5.93945,8.96991 28.34737,96.11107 32.21476,110.13626 16.08375,-4.13736 32.18776,-7.86302 48.46724,-11.14321 0.40497,-9.67185 3.2802,-96.45529 6.21618,-102.24625 1.51186,-1.31613 3.09796,-2.84149 3.53667,-4.61657 0.98541,3.76615 3.92138,4.63007 4.40059,10.27929 1.6401,19.25596 4.67732,39.67956 4.67732,58.93553 0,1.5996 -2.7065,4.7853 -2.7065,7.41081 0,8.96991 1.50511,18.08832 2.25429,27.03124 15.96901,-2.31504 31.92453,-4.26561 47.98804,-5.84496 l 3.34769,-25.03343 5.70997,24.28425 c 16.88018,-1.14065 33.75361,-1.93707 50.66079,-2.48377 l -0.40496,-24.55422 -1.57935,-3.10471 c 0.29022,0.46571 -0.67494,-0.89092 -0.33072,-0.72893 -3.97538,-6.29717 -3.2532,-51.40998 -3.2532,-58.84104 0,-4.3061 0.47245,-3.84039 4.03612,-5.62222 l -0.45895,-28.13139 -50.13435,-0.31722 0.24973,6.65488 -1.69409,-6.68863 -21.36177,-0.24972 -0.74243,4.46133 -0.68843,4.15761 -0.52646,-8.63919 -41.87311,-0.75593 -49.65513,-1.36338"
       style="fill:#cacbcd;fill-opacity:1;fill-rule:nonzero;stroke:none"
       id="path16715"
       inkscape:connector-curvature="0" /><path
       d="m 144.03507,594.56562 11.04197,52.1929 c 13.39751,-4.60307 23.29884,-5.36575 23.29884,-22.49566 0,-11.10947 -3.56367,-32.45099 -18.12882,-32.45099 -5.17002,0 -11.10947,1.75484 -16.21199,2.75375 z m -8.17349,-38.64016 c 11.01497,-1.04615 23.50806,0.49945 23.50806,-14.13319 0,-21.32127 -10.15781,-42.54805 -10.15781,-64.07855 0,-1.97081 0.11474,-3.95513 0.41172,-5.9057 l 36.12939,3.19921 5.43325,31.85704 c -3.40844,0.95166 -4.00913,4.48833 -4.00913,7.55929 0,11.37945 4.45458,22.52266 4.45458,33.9831 0,9.76634 -4.02937,15.95551 -12.74956,20.27511 23.68355,6.12843 29.57575,42.56155 29.57575,63.06614 0,46.94189 -45.727,55.91856 -80.43228,73.87189 l -9.0914,-39.07212 c 2.96972,-2.53776 4.20486,-6.02044 4.20486,-9.86758 0,-8.30848 -29.703993,-137.76145 -33.18667,-144.55807 -2.618756,-5.09578 -5.777463,-4.54233 -8.740438,-7.71454 -0.236228,-0.25647 -8.591951,-36.91907 -9.46937,-40.69871 l 53.374038,5.70996 7.5188,36.25089 c -3.58391,1.12039 -5.00128,4.03612 -5.00128,7.62679 0,13.25577 5.43999,29.47451 8.22749,42.62904"
       style="fill:#ffffff;fill-opacity:1;fill-rule:evenodd;stroke:none"
       id="path16717"
       inkscape:connector-curvature="0" /><path
       d="m 247.46246,554.01539 10.61001,46.2467 -0.5062,-46.98914 -10.10381,0.74244 z m -42.13634,-58.97603 36.29138,1.34988 3.07771,23.42032 c -2.73349,1.47812 -3.64466,1.80884 -3.64466,5.07553 0,1.95057 0.48596,3.8134 0.99891,5.69647 l 15.19959,-0.43871 0.10799,-3.48942 c 0,-3.98213 -2.30154,-4.50183 -4.23861,-6.91811 -0.16198,-0.20248 -2.60526,-20.88931 -2.87523,-23.06261 l 40.11152,1.10015 c 0.64794,7.01935 2.01131,14.63264 2.01131,21.65199 0,1.33637 -1.87632,1.97082 -2.48376,3.16545 -0.99891,1.97757 -1.1339,4.62333 -1.29588,6.77638 -2.39603,31.13485 -3.7999,62.3642 -5.08228,93.56655 -13.30977,2.67275 -26.51829,5.70997 -39.66607,9.09141 -9.26014,-33.59163 -18.68901,-67.13601 -28.44185,-100.59266 -1.33638,-4.58957 -4.83256,-7.78877 -6.08119,-11.27145 -2.49727,-6.9991 -2.79424,-17.58212 -3.98888,-25.12117"
       style="fill:#ffffff;fill-opacity:1;fill-rule:evenodd;stroke:none"
       id="path16719"
       inkscape:connector-curvature="0" /><path
       d="m 333.58446,567.8516 c 3.28019,-23.07611 6.81686,-46.11172 10.63026,-69.10683 l 12.78331,0.15524 17.02867,67.14276 c -0.26998,-7.49856 0.49945,-44.62011 -5.23077,-47.02963 l -0.75593,-19.99839 39.46359,0.24972 0.32397,19.65418 c -3.46918,1.72784 -3.98888,5.33875 -3.98888,8.85517 0,9.40863 -1.17439,59.70496 5.16327,62.76242 l 0.32397,19.3572 c -13.74847,0.43871 -27.46995,1.10015 -41.19142,2.03157 l -11.23771,-47.84631 -6.60764,49.31767 c -12.88455,1.26213 -25.71511,2.80774 -38.51867,4.66382 -0.58044,-6.85737 -1.76833,-14.16694 -1.76833,-21.0108 0,-0.66819 2.71324,-4.69082 2.71324,-7.41081 0,-19.3977 -3.05071,-39.98329 -4.70431,-59.38099 -0.5197,-6.15543 -1.6266,-6.27016 -4.54233,-10.91373 -0.18223,-0.27673 -1.61985,-19.23572 -1.79533,-21.32127 l 31.15511,0.5602 1.24863,20.58558 c -2.74699,1.24189 -3.04397,4.3736 -3.04397,7.0396 0,13.74172 1.6806,27.90866 2.55127,41.64363"
       style="fill:#ffffff;fill-opacity:1;fill-rule:evenodd;stroke:none"
       id="path16721"
       inkscape:connector-curvature="0" /><path
       d="m 463.86085,553.8669 -0.33747,32.60622 2.28804,0.0203 c 14.40991,0 12.02063,-9.82709 12.02063,-21.39551 0,-8.72019 -2.97647,-11.21746 -11.62917,-11.21746 l -2.34203,-0.0135 z m 0.23623,-23.12335 c 28.00315,0.12149 47.27261,-0.43871 47.27261,33.42289 0,30.16295 -4.23186,45.43678 -37.21604,45.43678 -16.50222,0 -32.96394,-0.27672 -49.46616,-0.054 l -0.18898,-19.28971 c 3.82014,-2.01806 3.94838,-6.31067 3.94838,-10.13081 0,-9.48962 1.95732,-57.97036 -4.63007,-61.23031 l -0.18223,-19.58668 47.09037,0.007 -0.29022,19.57993 c -6.62788,1.5861 -6.27692,6.22292 -6.33766,11.84515"
       style="fill:#ffffff;fill-opacity:1;fill-rule:evenodd;stroke:none"
       id="path16723"
       inkscape:connector-curvature="0" /><path
       d="m 552.08866,548.79812 1.5591,41.15768 8.86868,-40.79996 -10.42778,-0.35772 z m -31.64107,-49.71588 37.20255,-0.39821 -1.54561,20.4371 c -2.82124,1.13389 -5.02153,2.1193 -5.02153,5.68972 l 0.15523,3.55017 15.56406,0.21598 c 0.29022,-0.93141 0.81667,-2.13955 0.81667,-3.12496 0,-2.30829 -2.91573,-3.97538 -2.91573,-6.28367 0,-6.72237 1.1339,-13.88346 1.68735,-20.61258 l 40.11827,-0.77618 c -0.68169,6.18918 -0.41846,15.97577 -2.38253,21.62499 -0.95841,2.75375 -4.57607,5.58173 -5.75721,9.7326 -8.27474,29.09654 -15.98927,58.36857 -23.71055,87.60686 -13.97795,-1.82233 -27.97615,-3.2802 -42.02835,-4.43434 -2.74024,-28.11114 -5.58848,-56.22228 -9.12515,-84.23892 -0.25648,-2.03831 -0.52645,-4.49509 -1.59285,-6.30392 -0.62769,-1.05965 -2.44327,-1.5456 -2.44327,-2.78074 0,-6.58064 0.65469,-13.32326 0.97865,-19.9039"
       style="fill:#ffffff;fill-opacity:1;fill-rule:evenodd;stroke:none"
       id="path16725"
       inkscape:connector-curvature="0" /><path
       d="m 647.01859,632.05838 c -25.55313,0 -39.3286,-12.66857 -39.3286,-38.13395 0,-11.50093 1.99106,-23.17735 3.34769,-34.59054 4.12387,-34.71877 3.30719,-65.65115 47.33335,-65.65115 6.07444,0 32.70746,4.62332 32.70746,13.29627 l -12.05438,71.75933 -33.44314,-4.15087 3.8134,-26.34955 4.85954,0.29023 c 0.80318,-5.44 2.65251,-14.36942 2.65251,-19.89041 0,-3.15195 -0.72894,-6.51989 -4.56933,-6.51989 -2.32853,0 -3.98213,1.15414 -5.14977,3.12496 -2.30154,3.90114 -10.70451,63.38336 -10.70451,70.4972 0,3.73915 0.97191,7.30282 5.39275,7.30282 5.72347,0 6.73588,-15.82728 7.31632,-19.74866 l 28.36087,4.35334 c -0.5872,3.49618 -5.87196,36.1159 -6.11493,36.50061 -2.95623,4.65032 -19.20197,7.91026 -24.41923,7.91026"
       style="fill:#ffffff;fill-opacity:1;fill-rule:evenodd;stroke:none"
       id="path16727"
       inkscape:connector-curvature="0" /><path
       d="m 715.80145,474.53477 c 35.85266,-3.19245 71.63784,-6.88436 107.40277,-10.85299 l -18.76326,81.08696 -32.60622,-2.11255 c 1.49161,-6.90461 3.53667,-13.9847 3.53667,-21.09179 0,-8.34897 -4.00238,-11.00148 -11.99363,-11.00148 l -14.66639,0.16874 -10.13081,50.41781 38.46468,4.40059 -8.53121,38.61992 -37.01356,-7.82253 -8.78094,43.65495 c 4.8393,1.57935 12.66183,4.87304 17.51463,4.87304 10.20505,0 12.54033,-14.03869 14.18718,-21.66548 l 29.89297,8.51096 -17.10291,73.91913 c -28.11789,-14.43016 -56.37076,-27.78717 -85.69679,-39.59857 l 5.54124,-30.93238 c 3.06421,-0.13499 5.02828,-1.91007 6.35791,-4.54908 2.20029,-4.37359 21.57774,-108.52991 21.57774,-115.7045 0,-3.84714 -0.90442,-6.88436 -4.95404,-8.09924 l 5.76397,-32.22151"
       style="fill:#ffffff;fill-opacity:1;fill-rule:evenodd;stroke:none"
       id="path16729"
       inkscape:connector-curvature="0" /><path
       d="m 83.567434,503.03062 -0.229479,-0.91791 -1.012406,-4.24536 -3.037218,-13.08028 -4.144115,-18.06132 47.778814,5.10927 6.70212,32.3025 c -3.35443,1.98432 -4.63007,5.52774 -4.63007,9.1589 0,15.31433 5.62898,30.6219 8.77419,45.48402 12.00038,-1.14739 28.23938,0.64794 28.23938,-16.98817 0,-21.84772 -10.16456,-42.24432 -10.16456,-64.07855 0,-1.0124 0.0337,-2.03831 0.11474,-3.05071 l 31.53307,2.79424 4.75156,27.86816 c -3.35444,2.23404 -3.70541,6.61438 -3.70541,9.09815 0,11.51443 4.45459,22.48891 4.45459,33.9831 0,13.17477 -7.63354,16.104 -17.62936,21.05804 l 6.85061,1.76834 c 21.46301,5.55473 27.60494,39.54457 27.60494,60.51487 0,44.17465 -44.58636,54.4472 -75.98444,70.0045 l -7.99126,-34.34081 c 2.80099,-3.00347 3.93488,-6.80337 3.93488,-10.7315 0,-8.6932 -29.79173,-138.55788 -33.476888,-145.75946 -2.881982,-5.62223 -5.352253,-4.79206 -8.733688,-7.89002 z m 60.393386,49.67539 c -1.97081,0.16873 -4.00238,0.26322 -6.02044,0.40496 -2.94272,-12.98579 -7.66729,-26.3833 -7.66729,-39.81455 0,-4.3196 2.03157,-4.75831 5.43325,-5.81796 l -8.39622,-40.47599 -58.976021,-6.31066 0.843671,3.61766 4.967539,21.66549 3.043967,13.10053 1.019155,4.2926 0.317221,1.25538 c 1.019155,3.87414 6.904608,4.46809 9.077907,8.7067 3.273445,6.3849 32.903191,135.41941 32.903191,143.34993 0,4.24535 -1.44436,6.29041 -4.50183,8.90917 l 10.21855,43.93167 c 34.55004,-17.87234 84.87337,-28.54985 84.87337,-77.77303 0,-18.56077 -4.84605,-53.29305 -26.16057,-63.63983 6.27691,-4.60308 9.33438,-10.92724 9.33438,-19.70142 0,-11.52118 -4.45459,-22.50241 -4.45459,-33.9831 0,-4.34659 0.75593,-4.64356 4.36685,-5.65597 l -6.17568,-36.20364 -40.63122,-3.60416 c -0.43196,2.92248 -0.80993,5.79771 -0.80993,8.75393 0,21.86797 10.16456,42.28483 10.16456,64.07855 0,9.11165 -5.54124,10.29954 -12.76982,10.91374 z m 9.15215,97.52169 c 14.48416,-4.98104 27.90191,-6.08119 27.90191,-25.96484 0,-12.39185 -4.13062,-35.08999 -20.76782,-35.08999 -6.45915,0 -13.03304,2.07881 -19.35045,3.31394 l 12.21636,57.74089 z m 3.93489,-6.89786 -9.88783,-46.72591 c 4.2791,-0.94491 8.67969,-2.15305 13.08703,-2.15305 12.71582,0 15.48981,20.75432 15.48981,29.81198 0,14.36941 -7.81577,15.55055 -18.68901,19.06698 z M 289.72703,518.97939 c -3.38819,2.94273 -3.44893,6.04069 -3.7729,10.1848 -2.34203,30.48017 -3.7459,61.04808 -5.00128,91.59574 -11.82491,2.40953 -23.56207,5.10253 -35.25873,8.07225 -9.04416,-32.77495 -18.2503,-65.50266 -27.76692,-98.13588 -1.28238,-4.40734 -4.66382,-7.33657 -6.12843,-11.42669 -2.40278,-6.73587 -2.56476,-14.41666 -3.43543,-21.4765 l 30.92563,1.14739 2.55801,19.4247 c -2.65251,1.6266 -3.43543,3.30719 -3.43543,6.51989 0,2.88198 0.89091,5.63573 1.6401,8.38947 l 19.74866,-0.56694 0.19573,-6.00695 c 0,-2.75374 -0.93141,-4.83255 -2.86848,-6.67513 -0.5737,-0.53995 -1.18114,-1.0664 -1.70759,-1.66034 -0.081,-0.58045 -0.0337,-1.36338 -0.16199,-2.34878 l -0.91791,-7.39057 -1.11365,-9.23989 34.73902,0.95841 c 0.67494,6.12843 1.7076,12.59433 1.76159,18.63502 z m -45.781,-25.14816 -41.73137,-1.55236 c 1.86958,11.77766 1.15414,24.34499 7.90352,34.55679 1.18789,1.78858 2.19354,3.45568 2.74699,5.33201 9.98907,34.28006 19.63393,68.64112 29.1168,103.06292 14.63264,-3.7729 29.25853,-7.13409 44.0734,-10.11731 1.30263,-31.87054 2.72,-63.74108 5.16327,-95.54412 0.14849,-1.98432 0.20248,-4.06313 1.12715,-5.87871 1.34312,-1.28238 2.65925,-2.1058 2.65925,-4.2656 0,-8.052 -1.49836,-16.23224 -2.24079,-24.2235 l -45.51777,-1.24863 0.37796,3.04396 1.47811,12.26361 0.91792,7.42431 0.33072,2.46352 c 0.34422,2.47028 1.41737,3.09797 3.14521,4.69757 l 0.48595,0.49945 c 0.39146,0.45221 0.72893,0.93816 0.74243,2.2273 l -0.0337,1.00565 -10.61002,0.30372 c -0.24298,-1.05965 -0.39146,-2.02481 -0.39146,-2.99672 0,-0.72218 0.12149,-1.29588 0.17548,-1.51186 0.34422,-0.41171 3.33419,-1.91007 3.68516,-2.09905 l -3.60417,-27.44295 z m 11.56168,107.0248 5.20377,-0.62094 -0.5332,-49.80362 -15.97577,1.18114 11.3052,49.24342 z m -0.33747,-25.04017 -4.44784,-19.39095 4.23861,-0.31722 0.20923,19.70817 z m 91.27852,-74.40509 8.49071,0.10124 16.52922,65.1787 5.19026,-0.74243 c -0.26322,-7.5323 0.79643,-42.08909 -5.27801,-48.27827 l -0.60069,-16.00276 34.12483,0.22273 0.25648,15.57755 c -3.60417,2.69975 -3.96189,7.16783 -3.96189,10.30629 0,8.59196 -1.49836,56.64749 5.18352,64.01781 l 0.25648,15.55055 c -12.15562,0.41171 -24.30449,1.00566 -36.44662,1.80208 l -10.7315,-45.66625 -5.18352,0.24972 -6.32416,47.24561 c -11.3052,1.1339 -22.5699,2.49052 -33.82111,4.08337 -0.60744,-5.93944 -1.48486,-12.12862 -1.49161,-17.96683 1.20814,-2.45677 2.7065,-4.48158 2.7065,-7.4513 0,-7.56605 -2.99672,-60.03568 -6.36466,-66.60957 -0.89092,-1.73458 -2.13955,-3.28019 -3.17895,-4.92029 -0.054,-0.5467 0.0405,-1.24188 -0.0405,-2.15305 l -0.56695,-6.80337 -0.66144,-8.44346 25.80961,0.47245 1.00565,16.60346 c -2.48377,2.06531 -2.95622,5.39275 -2.95622,8.42322 0,13.79572 1.68059,28.0234 2.55801,41.81911 l 5.25101,0.19574 c 3.16546,-22.30668 6.57389,-44.57961 10.24555,-66.81205 z m -4.83255,-3.09796 c -2.52427,15.21309 -4.92704,30.44642 -7.21508,45.69326 -0.41846,-5.96645 -0.72893,-11.9194 -0.72893,-17.7981 0,-3.55692 0.081,-4.00238 3.15195,-5.386 l -1.51185,-24.83094 -36.51411,-0.66144 0.24297,2.91573 0.89767,11.32544 0.56695,6.84387 0.21598,2.28804 c 0.44546,4.33984 4.02937,4.33984 4.66382,11.77765 1.64684,19.33021 4.69081,39.82805 4.69081,59.15826 0,2.40277 -2.71325,5.3185 -2.71325,7.41081 0,7.99125 1.34313,16.07025 2.01131,24.02102 14.40317,-2.09231 28.77258,-3.83365 43.24999,-5.25102 l 4.98103,-37.17554 8.47722,36.0619 c 15.30082,-1.03941 30.5949,-1.76834 45.92273,-2.25429 l -0.46571,-22.12445 c 0,0 -1.17439,-1.92357 -1.40387,-2.30153 -4.52883,-7.18809 -3.65816,-52.03092 -3.65816,-60.25166 0,-4.17111 0.45896,-5.46699 4.00913,-7.23532 l -0.39146,-23.89278 -44.79559,-0.29698 c 0,0 0.85717,22.76564 2.39603,25.10767 2.21379,2.90898 2.96972,16.24574 3.13171,19.30321 l 0.11473,2.38253 -11.88564,-46.85415 -17.06917,-0.20923 -0.37121,2.23404 z m 141.46011,35.57595 c 19.05348,1.63334 25.65436,9.50311 25.65436,30.27768 0,29.71749 -3.88764,42.80453 -34.57703,42.80453 -15.6248,0 -31.22935,-0.24973 -46.8609,-0.0945 l -0.14174,-15.19283 c 3.61092,-2.82124 3.93489,-7.35007 3.93489,-11.55493 0,-8.75394 2.24079,-55.04114 -4.63682,-62.4857 l -0.15524,-15.68554 41.75162,0 -0.21598,14.99711 c -7.29607,2.86848 -6.33091,10.15106 -6.39165,16.42122 l 2.6525,0.007 c 6.92486,0.0337 13.30301,0.0135 18.98599,0.50621 z m 0.44546,-5.25777 c -5.07553,-0.43871 -10.69101,-0.48595 -16.75195,-0.51295 l 0.0472,-1.20814 c 0.29022,-4.58957 1.91007,-4.89329 6.22292,-5.92595 l 0.35772,-24.30449 -52.42238,0 0.33072,22.36742 c 0,0 1.19463,2.01132 1.43761,2.40278 4.60982,7.12059 3.06422,50.42457 3.06422,58.67905 0,4.52883 0.18223,6.35791 -3.96188,8.54471 l 0.22272,23.54856 c 17.36614,-0.23623 34.72553,0.0202 52.08492,0.0202 35.27222,0 39.84829,-17.46063 39.84829,-48.07579 0,-23.52831 -8.60545,-33.65912 -30.48016,-35.53545 z m -22.6644,60.46089 4.94054,0.0405 c 11.69667,0 14.81488,-5.8517 14.82163,-15.80703 0,-2.55126 -0.14849,-5.332 -0.14849,-8.22748 0,-10.33329 -4.3196,-13.85647 -14.26143,-13.85647 l -4.96079,-0.027 -0.39146,37.87748 z m 5.61548,-32.57248 c 7.12059,0.0337 8.72019,1.55911 8.72019,8.57846 0,2.89548 0.15523,5.67622 0.14849,8.22748 0,6.9991 -0.94492,10.52902 -9.52337,10.52902 l 0.65469,-27.33496 z m 55.63508,-38.13395 c 0.027,-5.52099 0.5062,-11.14997 0.83692,-16.6912 l 31.86379,-0.34422 -1.21488,15.96901 -0.66144,0.31723 c -2.91573,1.48486 -4.48834,3.80664 -4.48834,7.22857 l 0.26998,6.10144 20.03889,0.27672 0.58044,-1.89657 0.50621,-1.53211 c 0.18223,-0.60069 0.41846,-1.45786 0.41846,-2.36228 0,-1.43087 -0.59395,-2.72 -1.38362,-3.87414 l -1.06641,-1.49836 -0.31722,-0.51295 c -0.12148,-6.16893 0.74244,-12.4526 1.31613,-18.41904 l 34.82677,-0.67494 c -0.5332,7.99126 0.4927,15.11185 -4.41409,21.69923 -1.18789,1.59286 -2.65251,3.67166 -3.38144,6.24317 -8.07225,28.36762 -15.60455,56.90397 -23.13685,85.42007 -12.52684,-1.5996 -25.07392,-2.90898 -37.6615,-3.97538 -2.67275,-27.40246 -5.46699,-54.80491 -8.90917,-82.11962 -0.49271,-3.83365 -0.79643,-6.90461 -4.02263,-9.35463 z m 42.78428,7.52555 -11.12972,-0.15524 -0.0473,-0.94491 c 0,-2.55126 2.97648,-3.08446 4.8933,-3.85389 l 1.88982,-24.94569 -42.56829,0.45896 c -0.37122,7.48506 -1.10015,15.01061 -1.10015,22.51591 0,2.21379 1.37687,2.92923 2.80774,4.12387 2.80099,4.74481 9.84059,84.03644 10.57627,91.64298 15.53705,1.27563 30.95262,2.89548 46.40869,4.91355 7.91701,-29.99422 15.80703,-59.97493 24.29099,-89.80716 1.0394,-3.68516 4.46133,-6.02044 5.70322,-9.58411 2.60526,-7.51205 1.96407,-17.2109 2.84823,-25.19541 l -45.50427,0.88417 c -0.62769,7.68079 -1.89657,15.48981 -1.89657,23.20434 0,1.41737 0.59394,2.72 1.37687,3.87414 l 1.07315,1.49836 0.31047,0.51296 c 0.15524,0.45895 0.13499,0.60069 0.0675,0.85717 z m -13.88346,64.14604 5.21726,0.45895 9.54361,-43.89117 -16.42797,-0.5602 1.6671,43.99242 z m 4.48833,-21.0108 -0.66819,-17.50787 4.43434,0.14848 -3.76615,17.35939 z m 113.48396,53.98823 c -2.747,3.17221 -16.68445,6.39166 -21.96246,6.39166 -24.21,0 -36.6896,-11.60217 -36.6896,-35.5017 0,-11.39969 1.98432,-22.96812 3.32745,-34.28007 3.68515,-30.99987 1.90332,-63.32936 44.71459,-63.32936 3.61092,0 30.06846,4.40059 30.06846,10.66401 0,0 -7.94401,48.56848 -11.57518,68.77611 l -28.27987,-3.50293 3.08446,-21.28752 4.8393,0.29022 c 0.95167,-6.37816 3.03722,-16.1445 3.03722,-22.61715 0,-4.60982 -1.70759,-9.1589 -7.20833,-9.1589 -3.42868,0 -5.8787,1.80209 -7.42431,4.43434 -2.7065,4.59633 -11.06897,64.77373 -11.06897,71.82683 0,3.77965 1.0529,9.94183 8.03175,9.94183 7.62005,0 8.97667,-14.16694 9.59761,-19.37071 l 23.04911,3.53668 -2.76049,16.78569 -1.95057,11.69666 -0.66144,3.8134 -0.16873,0.89091 z m -63.93007,-29.11004 c 0,27.02449 15.06461,40.77971 41.96761,40.77971 5.05528,0 25.71511,-3.51642 27.10548,-10.47503 l 0.21598,-1.14739 0.67493,-3.86739 1.95057,-11.71691 3.19246,-19.41795 0.44546,-2.639 -33.63888,-5.15653 c -0.39821,2.72 -2.24754,20.11989 -5.08903,20.11989 -1.87632,0 -2.75374,-0.96516 -2.75374,-4.66382 0,-7.17458 8.45696,-65.94812 10.34004,-69.15408 0.77618,-1.32287 1.6401,-1.83583 2.87523,-1.83583 2.01131,0 1.93032,2.44328 1.93032,3.88764 0,4.64357 -1.49161,12.49984 -2.24079,17.06242 l -4.88655,-0.28348 -4.54907,31.40484 38.62666,4.7988 c 3.63116,-21.67899 12.49984,-74.64131 12.49984,-74.64131 0,-11.27146 -28.27988,-15.93527 -35.34647,-15.93527 -46.73941,0 -45.94973,34.23282 -49.95886,67.97968 -1.36337,11.51443 -3.36119,23.29884 -3.36119,34.90101 z M 819.79578,466.719 802.3689,541.99475 775.08119,540.22642 c 1.41062,-6.14193 2.92923,-12.32436 2.92923,-18.66202 0,-10.1848 -5.60198,-13.63373 -14.64614,-13.63373 l -16.81269,0.18898 -11.12972,55.32461 38.41743,4.39384 -7.34331,33.21367 -37.05406,-7.82928 -9.76634,48.56174 c 5.93269,1.93032 14.52465,5.73022 20.55859,5.73022 11.04197,0 14.35591,-12.47959 16.17824,-20.99055 l 24.7702,7.04634 -15.78678,68.18217 c -26.55878,-13.55949 -53.2593,-26.13357 -80.90474,-37.35103 l 4.82581,-26.97724 c 3.08446,-0.80993 5.12952,-3.04397 6.45915,-5.67623 2.44327,-4.88654 21.85447,-109.50182 21.85447,-116.89239 0,-3.65141 -0.78968,-7.57279 -4.63007,-9.70559 l 5.04853,-28.16514 c 33.94934,-3.04397 67.85819,-6.52664 101.74679,-10.26579 z m 3.11821,-5.65598 c -36.43311,4.04288 -72.83923,7.76853 -109.35334,11.02173 l -6.53339,36.52085 c 3.97538,1.19464 5.32526,1.40387 5.32526,6.24992 0,6.95186 -19.35721,110.64922 -21.30103,114.52336 -1.5861,3.17221 -3.13845,3.05747 -6.22292,3.18571 l -6.29041,35.12373 c 31.1416,12.54034 60.62961,26.52504 90.47534,41.84612 l 18.43929,-79.66285 -35.01575,-9.96883 c -1.39712,6.47265 -3.46243,22.33368 -12.20286,22.33368 -3.97539,0 -10.54252,-2.59176 -14.46391,-3.98213 l 7.78878,-38.77515 36.95956,7.81578 9.73935,-44.03291 -38.52542,-4.40734 9.1454,-45.50428 12.51333,-0.14848 c 6.94511,0 9.34114,1.84258 9.34114,8.36247 0,7.89677 -2.46352,15.84753 -4.12387,23.52157 l 37.89773,2.46352 20.10638,-86.89818 -3.69866,0.41171"
       style="fill:#005cab;fill-opacity:1;fill-rule:evenodd;stroke:none"
       id="path16731"
       inkscape:connector-curvature="0" /><path
       d="m 587.04366,1129.5884 c 0.87742,2.882 -0.26323,4.8933 -2.61201,5.6087 -2.34878,0.7222 -4.40734,-0.3104 -5.29151,-3.1924 -0.89766,-2.9292 0.22273,-4.7178 2.65251,-5.4603 2.42302,-0.7356 4.35334,0.1148 5.25101,3.044 z m -41.70438,13.0803 c 0.28348,0.9179 0.5872,1.8088 0.91792,2.6795 l -9.13865,1.7211 -5.57499,-39.6931 -34.9415,4.9068 5.58173,39.6998 -9.23314,0.864 -0.68169,-39.2207 -31.31034,0.5467 -7.16783,12.2434 -0.20923,-12.1151 -31.06062,0.5399 -29.83897,-4.7245 -3.09122,6.9653 -5.35225,-0.8504 -0.55345,-7.539 -37.43877,-5.9327 13.60674,75.9439 33.10567,5.2375 26.63977,-48.7845 0.91792,52.6114 31.45883,-0.5534 7.01259,-12.4054 0.21598,12.2771 34.33407,-0.5939 -0.21598,-12.5876 1.71434,12.1961 58.35507,-8.2072 -3.57716,-25.4722 c 9.42887,14.6664 27.52394,19.7082 44.33663,14.5719 20.12663,-6.1554 33.61187,-25.4181 26.86925,-47.4683 -6.89111,-22.5497 -28.67808,-30.1495 -48.72372,-24.021 -20.04564,6.1284 -33.85486,24.6082 -26.957,47.1646 z m -279.37004,7.944 31.84354,12.8643 27.30121,-67.568 -29.0358,-11.7371 -11.37944,8.4772 4.54233,-11.2377 -27.78717,-11.2242 -26.57903,-16.6102 -5.56149,5.2037 -4.59632,-2.8684 2.44327,-7.1544 -32.14726,-20.0929 -0.61419,2.6795 c -2.2408,-6.7358 -6.76288,-12.7428 -11.77766,-16.9476 -6.51989,-5.4738 -15.40882,-9.9486 -23.73754,-11.8924 l -6.13518,-1.4376 -7.78203,23.2988 c -4.69756,0.7019 -9.24664,3.0102 -13.03979,7.5323 -12.47959,14.8756 -4.96079,33.3891 6.4254,42.9395 6.08119,5.1025 13.04654,8.3827 21.05805,9.6111 l 5.70322,0.8707 6.9451,-20.1469 c 5.69647,0.088 11.3457,-1.9168 16.23224,-7.0261 l -10.42778,45.7405 28.42836,17.7643 43.5942,-34.5095 -19.78241,48.9735 29.16404,11.7911 11.3052,-8.6864 -4.60307,11.3929 z m 431.32542,-115.2928 -29.58925,19.2155 0.93142,1.4309 -25.43164,12.4053 -1.31613,14.1264 -5.31175,-10.8935 -30.86489,15.0512 31.94479,65.5026 28.27987,-13.789 1.11364,-14.2141 5.37926,11.0419 30.87163,-15.0578 -21.14579,-43.3445 25.24266,38.8629 29.58925,-19.2155 -18.15582,-27.9626 c 14.86212,15.6788 37.2228,14.4301 52.7396,1.4106 16.11751,-13.519 21.00405,-36.5276 6.18243,-54.184 -15.15909,-18.06803 -38.17445,-16.55617 -54.23796,-3.0777 -12.99929,10.907 -19.07373,27.686 -12.86431,43.2635 l -13.35701,-20.5721 z m 53.11082,2.9225 c 1.93707,2.3083 1.67385,4.6031 -0.20923,6.1824 -1.87633,1.5794 -4.18461,1.4376 -6.12168,-0.8639 -1.97082,-2.3555 -1.63335,-4.4343 0.31047,-6.0677 1.94382,-1.6266 4.04962,-1.5996 6.02044,0.7492"
       style="fill:#231f20;fill-opacity:1;fill-rule:nonzero;stroke:none"
       id="path16733"
       inkscape:connector-curvature="0" /><path
       d="m 165.95028,1030.4131 c 0.80992,0.6817 1.72109,1.7211 2.21379,2.855 0.50621,1.1474 0.56695,2.3555 -0.28347,3.3679 -0.85042,1.0125 -1.84258,1.1272 -2.86848,0.8505 -0.50621,-0.135 -1.01916,-0.3712 -1.50511,-0.6277 -0.48596,-0.2498 -0.95841,-0.5332 -1.40387,-0.7762 l -3.7999,-2.1665 c -7.39056,-4.2522 -15.95552,-4.9878 -21.88147,2.0788 -9.00366,10.7315 -4.28585,24.9321 5.56824,33.2001 4.63007,3.8877 9.78659,6.4794 15.65179,7.7078 l 1.99107,0.4185 5.25776,-15.2536 -2.65251,-0.4725 c -3.50967,-0.6277 -6.89785,-1.8493 -9.71909,-4.2183 -0.71544,-0.6007 -1.49161,-1.4781 -1.88983,-2.4366 -0.39821,-0.9719 -0.41171,-2.0113 0.36447,-2.9292 0.69518,-0.8234 1.59285,-0.8976 2.54451,-0.6412 0.51296,0.1418 0.97191,0.351 1.34988,0.54 l 5.68972,2.9292 c 8.28148,4.2859 16.43472,4.7853 22.87362,-2.8887 9.05091,-10.7855 3.71891,-24.3788 -6.07443,-32.5995 -5.15652,-4.3263 -12.10163,-7.9778 -18.72951,-9.9013 l -2.12605,-0.6142 -5.66948,16.9612 2.92923,0.2429 c 4.38034,0.3577 8.80118,1.5524 12.16912,4.3736"
       style="fill:#005cab;fill-opacity:1;fill-rule:evenodd;stroke:none"
       id="path16735"
       inkscape:connector-curvature="0" /><path
       d="m 206.26428,1089.6659 -0.56019,-0.351 5.83145,-16.2592 6.75613,4.2183 -12.02739,12.3919 z m -7.48505,-50.3301 -13.89021,60.9468 20.12663,12.5741 49.15568,-38.9101 -19.26271,-12.0342 -5.56148,5.2038 -13.74847,-8.5919 2.44327,-7.1544 -19.26271,-12.0341"
       style="fill:#005cab;fill-opacity:1;fill-rule:evenodd;stroke:none"
       id="path16737"
       inkscape:connector-curvature="0" /><path
       d="m 269.89062,1107.5652 c 0.87742,-1.5928 1.67385,-3.2127 2.35553,-4.8865 l 7.18809,-17.7914 -19.02649,-7.6875 -22.12444,54.7509 18.96574,7.6605 27.19997,-16.8734 -0.29697,0.513 c -1.26213,2.207 -2.42303,4.4545 -3.36119,6.7831 l -6.63463,16.4077 19.02648,7.6875 22.11769,-54.7509 -18.88474,-7.6268 -26.52504,15.8138"
       style="fill:#005cab;fill-opacity:1;fill-rule:evenodd;stroke:none"
       id="path16739"
       inkscape:connector-curvature="0" /><path
       d="m 382.92912,1147.5417 c -1.0124,2.3826 -1.80208,4.8731 -2.58501,7.2826 l -0.76943,-0.1215 -1.0529,-18.3988 8.51096,1.3432 -4.10362,9.8945 z m -28.98181,-36.7773 11.02848,61.5273 23.43382,3.7121 30.04821,-55.0276 -22.43492,-3.5502 -3.08446,6.9654 -16.00951,-2.5378 -0.55345,-7.539 -22.42817,-3.5502"
       style="fill:#005cab;fill-opacity:1;fill-rule:evenodd;stroke:none"
       id="path16741"
       inkscape:connector-curvature="0" /><path
       d="m 446.6432,1146.7858 c -0.12149,-2.45 -0.30372,-4.8393 -0.33747,-6.6211 l -0.33747,-19.1817 -20.51134,0.3577 1.03265,59.0435 20.44385,-0.3577 18.44604,-26.1606 c -0.34422,2.72 -0.56695,5.4468 -0.5197,8.1465 l 0.31047,17.6969 20.51134,-0.3578 -1.03265,-59.0435 -20.41685,0.3577 -17.58887,26.1201"
       style="fill:#005cab;fill-opacity:1;fill-rule:evenodd;stroke:none"
       id="path16743"
       inkscape:connector-curvature="0" /><path
       d="m 544.75884,1171.664 -2.66601,-18.9995 -11.64266,2.1868 -5.61548,-40.017 -21.25378,2.9832 5.62223,40.0238 -11.78441,1.1001 2.67276,18.9995 44.66735,-6.2769"
       style="fill:#005cab;fill-opacity:1;fill-rule:evenodd;stroke:none"
       id="path16745"
       inkscape:connector-curvature="0" /><path
       d="m 578.93766,1119.5926 c 6.20942,-1.9033 11.91264,1.1879 13.88346,7.6268 1.83583,6.0069 -0.69518,12.2501 -7.20158,14.2412 -6.5064,1.9843 -12.08813,-1.7819 -13.91721,-7.7821 -1.97756,-6.4456 1.01916,-12.1893 7.23533,-14.0859 z m -5.44674,-17.8251 c -17.23115,5.2645 -27.90866,20.4101 -22.37417,38.5322 5.42649,17.7441 23.02886,24.9794 40.18576,19.7351 17.15691,-5.2442 27.70618,-21.0918 22.27968,-38.8359 -5.54123,-18.1153 -22.86012,-24.7027 -40.09127,-19.4314"
       style="fill:#005cab;fill-opacity:1;fill-rule:evenodd;stroke:none"
       id="path16747"
       inkscape:connector-curvature="0" /><path
       d="m 643.14445,1102.2265 c -0.38472,-1.1339 -0.78968,-2.1801 -1.18114,-2.99 l -9.42888,-18.7228 -18.41229,8.9834 25.88385,53.0704 18.37854,-8.9632 5.53449,-30.7839 c 0.59394,2.0923 1.18789,3.9821 1.5996,4.8325 l 9.30738,17.9331 18.39879,-8.9699 -25.88384,-53.0771 -18.31105,8.9295 -5.88545,29.758"
       style="fill:#005cab;fill-opacity:1;fill-rule:evenodd;stroke:none"
       id="path16749"
       inkscape:connector-curvature="0" /><path
       d="m 726.58019,1094.0597 -32.15401,-49.5201 -18.00058,11.6831 32.16077,49.5269 17.99382,-11.6899"
       style="fill:#005cab;fill-opacity:1;fill-rule:evenodd;stroke:none"
       id="path16751"
       inkscape:connector-curvature="0" /><path
       d="m 739.10028,1031.8575 c 4.98104,-4.1779 11.42669,-3.5569 15.75979,1.5996 4.03612,4.8123 4.15086,11.5482 -1.05291,15.9218 -5.21726,4.3736 -11.83165,3.0844 -15.86777,-1.7211 -4.32635,-5.1633 -3.8134,-11.6224 1.16089,-15.8003 z m -11.98014,-14.2749 c -13.80246,11.5819 -17.71035,29.6905 -5.53448,44.2084 11.92614,14.2141 30.95937,13.9982 44.7011,2.4635 13.74172,-11.5347 17.25814,-30.2372 5.332,-44.4514 -12.17587,-14.5111 -30.69615,-13.8092 -44.49862,-2.2205"
       style="fill:#005cab;fill-opacity:1;fill-rule:evenodd;stroke:none"
       id="path16753"
       inkscape:connector-curvature="0" /><path
       d="m 168.16407,1027.7674 c 1.0934,0.9111 2.39603,2.3623 3.16546,4.1171 0.78293,1.7953 1.22164,4.5626 -0.80318,6.9721 -1.93707,2.3083 -4.46808,2.4905 -6.41865,1.9641 -0.85717,-0.2295 -1.61985,-0.594 -2.20029,-0.8977 -0.50621,-0.2632 -1.03266,-0.5737 -1.48487,-0.8234 l -3.83364,-2.1868 c -6.65488,-3.8269 -13.12078,-3.9349 -17.52137,1.3026 -7.29607,8.6932 -3.90114,20.7476 5.14302,28.3339 3.95513,3.3207 8.28148,5.5682 13.15453,6.7493 l 2.94947,-8.5649 c -3.46243,-0.7627 -6.9721,-2.1531 -10.01607,-4.7043 -0.97191,-0.8167 -2.18004,-2.1261 -2.86173,-3.7729 -0.73568,-1.7819 -0.92466,-4.2859 0.91117,-6.4659 1.91682,-2.2881 4.48833,-2.1936 6.10143,-1.7549 0.74243,0.2025 1.43761,0.513 1.99106,0.783 l 1.28238,0.6614 4.44109,2.288 c 7.5053,3.8877 13.65398,3.9012 18.64177,-2.0383 7.24208,-8.6324 3.48943,-20.0591 -5.64923,-27.7331 -4.50183,-3.7729 -10.54927,-7.0464 -16.41447,-8.9025 l -3.21945,9.6449 c 4.3331,0.5332 8.93617,1.9101 12.64157,5.0283"
       style="fill:#ffffff;fill-opacity:1;fill-rule:evenodd;stroke:none"
       id="path16755"
       inkscape:connector-curvature="0" /><path
       d="m 206.80423,1094.0732 -5.2915,-3.3004 8.22073,-22.9209 14.01845,8.7607 -16.94768,17.4606 z m -5.73021,-49.2367 -12.27036,53.8195 15.97576,9.9824 43.40522,-34.3611 -12.85081,-8.025 -5.56148,5.2038 -18.32455,-11.4537 2.43653,-7.1544 -12.81031,-8.0115"
       style="fill:#ffffff;fill-opacity:1;fill-rule:evenodd;stroke:none"
       id="path16757"
       inkscape:connector-curvature="0" /><path
       d="m 256.91158,1135.7506 33.97634,-21.0783 1.5861,1.5928 -1.45111,2.3286 c -1.29588,2.0855 -2.63226,4.2048 -3.86739,6.3714 -1.18789,2.0653 -2.28129,4.1779 -3.16546,6.3579 l -5.332,13.2085 12.61458,5.0958 19.53268,-48.339 -14.09269,-5.6965 -32.94369,19.6474 -1.56585,-1.5928 1.43761,-2.3285 c 2.19355,-3.53 4.05638,-6.6144 5.3995,-9.9351 l 5.8922,-14.5854 -12.61457,-5.1025 -19.53269,48.3457 14.12644,5.71"
       style="fill:#ffffff;fill-opacity:1;fill-rule:evenodd;stroke:none"
       id="path16759"
       inkscape:connector-curvature="0" /><path
       d="m 386.11483,1148.8849 c -0.97191,2.2813 -1.73459,4.684 -2.47702,6.9991 l -0.91117,2.8145 -6.44565,-1.0192 -1.45112,-25.4654 17.07592,2.7065 -5.79096,13.9645 z m -27.90866,-33.9494 9.73259,54.3325 18.60803,2.9427 26.53178,-48.5887 -14.97011,-2.3691 -3.08446,6.9654 -21.34152,-3.3814 -0.55345,-7.5391 -14.92286,-2.3623"
       style="fill:#ffffff;fill-opacity:1;fill-rule:evenodd;stroke:none"
       id="path16761"
       inkscape:connector-curvature="0" /><path
       d="m 445.11784,1176.5978 23.04236,-32.667 2.07881,0.8437 -0.42521,2.7065 c -0.74918,4.7516 -1.5861,9.6516 -1.49836,14.4707 l 0.24973,14.2411 13.59998,-0.2362 -0.90441,-52.1322 -15.16585,0.2633 -20.9298,31.0741 -2.09231,-0.8167 c 0.28348,-1.8493 0.25648,-4.3803 0.13499,-6.9923 -0.11474,-2.6188 -0.32397,-5.2241 -0.35772,-7.1274 l -0.27672,-15.726 -13.59999,0.2362 0.91117,52.1322 15.23333,-0.27"
       style="fill:#ffffff;fill-opacity:1;fill-rule:evenodd;stroke:none"
       id="path16763"
       inkscape:connector-curvature="0" /><path
       d="m 540.8577,1168.7213 -1.68734,-11.9937 -11.62917,2.1868 -5.64923,-40.179 -14.40316,2.0248 5.64247,40.179 -11.79115,1.1069 1.68734,11.9937 37.83024,-5.3185"
       style="fill:#ffffff;fill-opacity:1;fill-rule:evenodd;stroke:none"
       id="path16765"
       inkscape:connector-curvature="0" /><path
       d="m 577.92526,1116.2854 c 8.11949,-2.4838 15.69904,1.7413 18.1963,9.9216 2.29479,7.5188 -0.85717,15.9217 -9.48961,18.554 -8.6257,2.639 -15.94202,-2.558 -18.23681,-10.0768 -2.50402,-8.1803 1.41062,-15.915 9.53012,-18.3988 z m -3.42869,-11.2175 c -15.80028,4.8326 -24.93893,18.2976 -20.07263,34.2194 4.77181,15.6113 20.21437,22.2256 35.86617,17.4403 15.65854,-4.7853 24.7567,-18.905 19.98489,-34.5163 -4.8663,-15.9217 -19.9714,-21.9759 -35.77843,-17.1434"
       style="fill:#ffffff;fill-opacity:1;fill-rule:evenodd;stroke:none"
       id="path16767"
       inkscape:connector-curvature="0" /><path
       d="m 655.30007,1131.269 7.07334,-39.3488 2.24754,-0.068 c 0.027,0.108 3.00347,12.2298 3.98213,14.2479 l 7.74153,14.9026 12.25686,-5.9799 -22.86012,-46.8609 -13.65399,6.6616 -7.44455,37.6278 -2.25429,0.034 c -0.0135,-0.061 -1.97757,-8.5447 -3.51643,-11.7169 l -7.88326,-15.6518 -12.24337,5.9664 22.85338,46.8609 13.70123,-6.6751"
       style="fill:#ffffff;fill-opacity:1;fill-rule:evenodd;stroke:none"
       id="path16769"
       inkscape:connector-curvature="0" /><path
       d="m 721.80839,1093.0473 -28.40136,-43.7292 -12.19612,7.9238 28.39461,43.7292 12.20287,-7.9238"
       style="fill:#ffffff;fill-opacity:1;fill-rule:evenodd;stroke:none"
       id="path16771"
       inkscape:connector-curvature="0" /><path
       d="m 736.87974,1029.2117 c 6.49964,-5.4535 15.11859,-4.5288 20.62608,2.0248 5.05528,6.0205 5.4265,14.9904 -1.48486,20.7881 -6.91136,5.7977 -15.67205,3.8742 -20.72733,-2.1463 -5.50073,-6.5604 -4.92029,-15.2063 1.58611,-20.6666 z m -7.5323,-8.9834 c -12.66183,10.6235 -15.81378,26.5858 -5.11603,39.3421 10.49528,12.4999 27.28772,12.5606 39.82805,2.0383 12.54709,-10.5222 15.40882,-27.0785 4.91355,-39.585 -10.70451,-12.7496 -26.97725,-12.4189 -39.62557,-1.7954"
       style="fill:#ffffff;fill-opacity:1;fill-rule:evenodd;stroke:none"
       id="path16773"
       inkscape:connector-curvature="0" /><path
       d="m 517.24164,928.82156 c -9.7056,-5.73696 -14.57864,-11.95314 -17.83859,-22.73863 -4.36009,-14.45041 -1.73459,-26.48454 8.24773,-37.79649 -13.07353,10.17805 -18.18956,23.16385 -15.56405,39.52433 2.07206,12.88455 7.23533,20.9163 18.10857,28.13813 l 7.04634,-7.12734"
       style="fill:#231f20;fill-opacity:1;fill-rule:evenodd;stroke:none"
       id="path16775"
       inkscape:connector-curvature="0" /></g></svg>